<svg width="8" height="30" viewBox="0 0 8 30" fill="none" xmlns="http://www.w3.org/2000/svg">
<path d="M4.11708 28.4247C3.78514 28.4247 3.45644 28.3593 3.14976 28.2322C2.84309 28.1052 2.56443 27.919 2.32971 27.6843C2.09499 27.4496 1.9088 27.1709 1.78177 26.8642C1.65474 26.5576 1.58936 26.2289 1.58936 25.8969V14.2385C1.58936 13.5681 1.85567 12.9252 2.32971 12.4511C2.80375 11.9771 3.44669 11.7108 4.11708 11.7108C4.78748 11.7108 5.43042 11.9771 5.90446 12.4511C6.3785 12.9252 6.64481 13.5681 6.64481 14.2385V25.8969C6.64481 26.2289 6.57943 26.5576 6.4524 26.8642C6.32537 27.1709 6.13918 27.4496 5.90446 27.6843C5.66973 27.919 5.39108 28.1052 5.0844 28.2322C4.77772 28.3593 4.44903 28.4247 4.11708 28.4247Z" stroke="#5FACF4" stroke-width="2.60233" stroke-linecap="round" stroke-linejoin="round"/>
<path d="M4.11708 2.02808C3.61715 2.02808 3.12844 2.17632 2.71275 2.45408C2.29707 2.73183 1.97309 3.1266 1.78177 3.58848C1.59045 4.05037 1.54039 4.55861 1.63793 5.04894C1.73546 5.53927 1.9762 5.98967 2.32971 6.34318C2.68322 6.69669 3.13362 6.93743 3.62395 7.03496C4.11428 7.13249 4.62252 7.08244 5.0844 6.89112C5.54629 6.6998 5.94106 6.37582 6.21881 5.96013C6.49656 5.54445 6.64481 5.05574 6.64481 4.5558C6.64481 4.22386 6.57943 3.89516 6.4524 3.58848C6.32537 3.28181 6.13918 3.00315 5.90446 2.76843C5.66974 2.53371 5.39108 2.34752 5.0844 2.22049C4.77773 2.09346 4.44903 2.02808 4.11708 2.02808V2.02808Z" stroke="#5FACF4" stroke-width="2.60233" stroke-linecap="round" stroke-linejoin="round"/>
</svg>
