<svg width="28" height="26" viewBox="0 0 28 26" fill="none" xmlns="http://www.w3.org/2000/svg">
<path d="M24.588 4.14547C23.9669 3.46875 23.2108 2.92969 22.3686 2.56304C21.5264 2.1964 20.6167 2.01031 19.6982 2.01677C18.3049 2.01058 16.9509 2.47794 15.858 3.34222C15.265 3.80627 14.7418 4.35314 14.3044 4.96607C13.8671 4.35411 13.3442 3.80812 12.7517 3.34482C11.6589 2.47955 10.3045 2.01127 8.91068 2.01677C7.99213 2.0102 7.08241 2.19624 6.24019 2.56289C5.39796 2.92954 4.64195 3.46866 4.0209 4.14547C2.74158 5.57905 2.04936 7.44201 2.08217 9.36314C2.13846 11.5774 3.00051 13.695 4.50667 15.319C6.37423 17.378 8.40485 19.283 10.5788 21.0155V21.0155C11.4185 21.732 12.3709 22.5431 13.3546 23.4062C13.6161 23.6349 13.9518 23.761 14.2992 23.761C14.6467 23.761 14.9824 23.6349 15.2439 23.4062C16.2336 22.5387 17.1869 21.7277 18.0284 21.0112C20.2022 19.2786 22.2328 17.3736 24.1005 15.3147C25.6068 13.6907 26.4688 11.5731 26.525 9.3588C26.5572 7.4394 25.8656 5.57821 24.588 4.14547V4.14547Z" stroke="#FD3C38" stroke-width="2.60233" stroke-miterlimit="10" stroke-linecap="round" stroke-linejoin="round"/>
</svg>
