<svg width="30" height="29" viewBox="0 0 30 29" fill="none" xmlns="http://www.w3.org/2000/svg">
<path d="M28.5229 9.78588C28.4966 9.7322 28.4568 9.68626 28.4075 9.65249C28.3582 9.61871 28.3009 9.59827 28.2414 9.59313L5.95155 8.29424L14.9168 16.0464L15.4671 26.7806C15.5395 26.8668 15.6303 26.9356 15.733 26.9817C15.8356 27.0279 15.9474 27.0504 16.0599 27.0474C16.1724 27.0437 16.2827 27.0147 16.3824 26.9624C16.4822 26.9101 16.5687 26.8358 16.6357 26.7453L28.4786 10.2023C28.5271 10.1455 28.5573 10.0753 28.5653 10.001C28.5732 9.92665 28.5584 9.85165 28.5229 9.78588V9.78588Z" stroke="#62C058" stroke-width="2.60187" stroke-linecap="round" stroke-linejoin="round"/>
<path d="M14.9209 16.0484L28.2416 9.59312" stroke="#62C058" stroke-width="2.60187" stroke-linecap="round" stroke-linejoin="round"/>
</svg>
