<svg width="43" height="45" viewBox="0 0 43 45" fill="none" xmlns="http://www.w3.org/2000/svg">
<path d="M5.39327 39.0777C5.39327 39.0777 5.94993 42.8433 6.16605 43.5899C6.38217 44.3365 6.5197 44.939 8.65466 44.9849C9.82038 45.0111 10.6783 44.998 11.4773 44.9849C12.1846 44.9783 12.4531 43.996 12.381 42.9088C12.309 41.8283 12.2369 39.8505 12.2369 39.8505C12.2369 39.8505 7.31867 39.6212 5.39327 39.0711V39.0777Z" fill="#404040"/>
<path d="M7.53478 42.8958C7.51514 42.7583 7.29247 42.5946 7.20079 42.4963C7.07636 42.3588 6.93883 42.2409 6.79475 42.1231C6.97812 41.8284 7.1353 41.5206 7.30557 41.2128C7.4169 41.0163 6.8013 40.6364 6.70306 40.5644C6.67032 40.5382 6.61793 40.5841 6.65067 40.6168C6.762 40.7543 7.20079 41.0425 7.1091 41.2193C6.95847 41.514 6.78165 41.8153 6.59173 42.0838C6.55899 42.1296 6.56554 42.1885 6.61138 42.2213C6.7882 42.3654 7.4038 42.8042 7.33831 43.0661C7.25318 43.3805 7.05016 43.6359 6.99122 43.9764C6.98467 44.0354 7.06326 44.0485 7.0829 44.0026C7.22043 43.6948 7.58063 43.256 7.52823 42.9024L7.53478 42.8958Z" fill="black"/>
<path d="M8.89041 43.3345C8.87077 43.197 8.6481 43.0332 8.55641 42.935C8.43198 42.7975 8.29446 42.6796 8.15038 42.5617C8.33375 42.2605 8.49093 41.9592 8.6612 41.6514C8.77253 41.4549 8.15693 41.0751 8.05869 41.0031C8.02595 40.9769 7.98011 41.0227 8.0063 41.0555C8.11763 41.193 8.55641 41.4811 8.46473 41.658C8.3141 41.9527 8.13728 42.2539 7.94736 42.5224C7.91462 42.5683 7.92116 42.6272 7.96701 42.66C8.14383 42.804 8.75943 43.2428 8.68739 43.5048C8.60226 43.8191 8.39924 44.0745 8.34685 44.4151C8.3403 44.474 8.41889 44.4871 8.43853 44.4413C8.58261 44.1335 8.93625 43.6947 8.88386 43.341L8.89041 43.3345Z" fill="black"/>
<path d="M10.3115 43.3345C10.2919 43.197 10.0692 43.0332 9.97754 42.935C9.85311 42.7975 9.71558 42.6796 9.5715 42.5617C9.75487 42.2605 9.91205 41.9592 10.0889 41.6514C10.2002 41.4549 9.5846 41.0751 9.48637 41.0031C9.45362 40.9769 9.40778 41.0227 9.43397 41.0555C9.54531 41.193 9.98409 41.4811 9.8924 41.658C9.74178 41.9527 9.56495 42.2539 9.37503 42.5224C9.34229 42.5683 9.34884 42.6272 9.39468 42.66C9.5715 42.804 10.1871 43.2428 10.1151 43.5048C10.0299 43.8191 9.82691 44.0745 9.76797 44.4151C9.76142 44.474 9.84001 44.4871 9.85966 44.4413C10.0037 44.1335 10.3574 43.6947 10.305 43.341L10.3115 43.3345Z" fill="black"/>
<path d="M11.8375 43.1184C11.8178 42.9808 11.5952 42.8171 11.5035 42.7189C11.379 42.5814 11.2415 42.4635 11.0974 42.3456C11.2808 42.0509 11.438 41.7431 11.6083 41.4353C11.7196 41.2388 11.104 40.859 11.0058 40.7869C10.973 40.7607 10.9206 40.8066 10.9534 40.8393C11.0647 40.9769 11.5035 41.265 11.4118 41.4418C11.2612 41.7365 11.0909 42.0378 10.8944 42.3063C10.8617 42.3521 10.8748 42.4111 10.9141 42.4438C11.0909 42.5879 11.7065 43.0267 11.641 43.2886C11.5559 43.603 11.3528 43.8584 11.3005 44.1989C11.2939 44.2579 11.3725 44.271 11.3921 44.2251C11.5297 43.9173 11.8899 43.4786 11.8375 43.1249V43.1184Z" fill="black"/>
<path d="M38.0006 39.0777C38.0006 39.0777 37.4505 42.8433 37.2278 43.5899C37.0117 44.3365 36.8742 44.939 34.7392 44.9849C33.5735 45.0111 32.7156 44.998 31.9166 44.9849C31.2093 44.9783 30.9408 43.996 31.0129 42.9088C31.0849 41.8283 31.1569 39.8505 31.1569 39.8505C31.1569 39.8505 36.0752 39.6212 38.0006 39.0711V39.0777Z" fill="#404040"/>
<path d="M35.8591 42.8958C35.8787 42.7583 36.1014 42.5946 36.1931 42.4963C36.3175 42.3588 36.455 42.2409 36.5991 42.1231C36.4157 41.8284 36.2586 41.5206 36.0883 41.2128C35.977 41.0163 36.5926 40.6364 36.6908 40.5644C36.7235 40.5382 36.7694 40.5841 36.7432 40.6168C36.6319 40.7543 36.1931 41.0425 36.2848 41.2193C36.4354 41.514 36.6122 41.8153 36.8087 42.0838C36.8414 42.1296 36.8283 42.1885 36.789 42.2213C36.6122 42.3654 35.9966 42.8042 36.0687 43.0661C36.1538 43.3805 36.3568 43.6359 36.4092 43.9764C36.4157 44.0354 36.3372 44.0485 36.3175 44.0026C36.18 43.6948 35.8198 43.256 35.8722 42.9024L35.8591 42.8958Z" fill="black"/>
<path d="M34.5035 43.3345C34.5231 43.197 34.7458 43.0332 34.8309 42.935C34.9554 42.7975 35.0929 42.6796 35.237 42.5617C35.0536 42.2605 34.8964 41.9592 34.7196 41.6514C34.6083 41.4549 35.2239 41.0751 35.3221 41.0031C35.3548 40.9769 35.4007 41.0227 35.3745 41.0555C35.2632 41.193 34.8244 41.4811 34.9161 41.658C35.0667 41.9527 35.2435 42.2539 35.4334 42.5224C35.4662 42.5683 35.4596 42.6272 35.4138 42.66C35.237 42.804 34.6214 43.2428 34.6868 43.5048C34.772 43.8191 34.975 44.0745 35.0339 44.4151C35.0405 44.474 34.9619 44.4871 34.9423 44.4413C34.7982 44.1335 34.4445 43.6947 34.4969 43.341L34.5035 43.3345Z" fill="black"/>
<path d="M33.0824 43.3345C33.102 43.197 33.3247 43.0332 33.4164 42.935C33.5408 42.7975 33.6783 42.6796 33.8224 42.5617C33.639 42.2605 33.4819 41.9592 33.3116 41.6514C33.2002 41.4549 33.8159 41.0751 33.9141 41.0031C33.9468 40.9769 33.9992 41.0227 33.9665 41.0555C33.8551 41.193 33.4164 41.4811 33.5081 41.658C33.6587 41.9527 33.8355 42.2539 34.0254 42.5224C34.0582 42.5683 34.0516 42.6272 34.0058 42.66C33.8289 42.804 33.2133 43.2428 33.2788 43.5048C33.364 43.8191 33.567 44.0745 33.6259 44.4151C33.6325 44.474 33.5539 44.4871 33.5342 44.4413C33.3967 44.1335 33.0365 43.6947 33.0889 43.341L33.0824 43.3345Z" fill="black"/>
<path d="M31.5564 43.1184C31.5761 42.9808 31.7988 42.8171 31.8904 42.7189C32.0149 42.5814 32.1524 42.4635 32.2965 42.3456C32.1131 42.0509 31.9559 41.7431 31.7791 41.4353C31.6678 41.2388 32.2834 40.859 32.3816 40.7869C32.4144 40.7607 32.4602 40.8066 32.434 40.8393C32.3227 40.9769 31.8839 41.265 31.9756 41.4418C32.1262 41.7365 32.303 42.0378 32.4995 42.3063C32.5322 42.3521 32.5257 42.4111 32.4798 42.4438C32.303 42.5879 31.6874 43.0267 31.7595 43.2886C31.8446 43.603 32.0476 43.8584 32.1 44.1989C32.1066 44.2579 32.028 44.271 32.0083 44.2251C31.8708 43.9173 31.5106 43.4786 31.563 43.1249L31.5564 43.1184Z" fill="black"/>
<path d="M39.3169 22.5677L38.6293 24.7747L35.6102 23.9233" stroke="#404040" stroke-width="0.203942" stroke-linecap="round" stroke-linejoin="round"/>
<path d="M42.2088 17.3179L40.1328 16.6717C39.7737 16.5599 39.3919 16.7605 39.2801 17.1196L37.4602 22.9662C37.3484 23.3254 37.5489 23.7072 37.9081 23.8189L39.9841 24.4652C40.3433 24.577 40.725 24.3764 40.8368 24.0173L42.6567 18.1707C42.7685 17.8115 42.568 17.4297 42.2088 17.3179Z" fill="#FFAD00"/>
<path d="M3.80841 22.9148L4.49605 25.1153L7.51513 24.2705" stroke="#404040" stroke-width="0.203942" stroke-linecap="round" stroke-linejoin="round"/>
<path d="M3.14266 24.8075L5.21866 24.1613C5.57782 24.0495 5.77835 23.6677 5.66655 23.3085L3.84666 17.4619C3.73487 17.1028 3.35308 16.9022 2.99392 17.014L0.917911 17.6602C0.558752 17.772 0.358225 18.1538 0.470022 18.513L2.28991 24.3596C2.40171 24.7187 2.7835 24.9193 3.14266 24.8075Z" fill="#FFAD00"/>
<path d="M9.18513 29.0315C9.18513 29.0315 7.52824 26.3923 4.889 27.3288C2.24977 28.2653 2.14499 34.2576 4.6205 38.2394H12.0667C12.0667 38.2394 11.1629 31.9589 9.17858 29.0381L9.18513 29.0315Z" fill="#FFCF01"/>
<path d="M6.10709 33.9434C7.27173 33.9434 8.21586 32.9993 8.21586 31.8346C8.21586 30.67 7.27173 29.7259 6.10709 29.7259C4.94245 29.7259 3.99832 30.67 3.99832 31.8346C3.99832 32.9993 4.94245 33.9434 6.10709 33.9434Z" fill="#E7EEF1"/>
<path d="M7.73244 32.2292C7.94931 31.3327 7.39841 30.4302 6.50196 30.2133C5.60551 29.9964 4.70299 30.5473 4.48611 31.4438C4.26924 32.3402 4.82014 33.2428 5.71659 33.4596C6.61304 33.6765 7.51556 33.1256 7.73244 32.2292Z" fill="#FF4438"/>
<path d="M5.64873 30.5837C6.04822 30.4921 6.75551 30.4986 6.86029 30.8981C6.89304 31.0291 6.81445 31.1732 6.69657 31.2386C6.57868 31.3041 6.42806 31.3041 6.29053 31.3041H5.97618C5.85175 31.3041 5.72077 31.3041 5.60289 31.2648C5.48501 31.2255 5.37367 31.1339 5.34748 31.016C5.30164 30.8326 5.45881 30.6427 5.64218 30.5837" fill="#ED745C"/>
<path d="M9.4733 31.8345C9.4733 31.8345 5.34745 19.9875 4.79079 16.0712C4.23413 12.1549 5.56357 9.76451 5.56357 9.76451C5.56357 9.76451 3.70366 9.49601 3.97217 7.43963C3.97217 7.43963 3.97217 5.97921 5.30161 5.84823C5.30161 5.84823 4.06386 3.26139 6.90611 1.99744C9.74181 0.733485 15.5246 0 21.7002 0C27.8759 0 33.6521 0.733485 36.4944 1.99089C39.3366 3.25484 38.0989 5.84168 38.0989 5.84168C39.4283 5.97266 39.4283 7.43308 39.4283 7.43308C39.6968 9.48946 37.8369 9.75796 37.8369 9.75796C37.8369 9.75796 39.1663 12.1483 38.6097 16.0646C38.053 19.9809 34.0188 30.7343 34.0188 30.7343" fill="#FFCF01"/>
<path d="M34.0123 29.0315C34.0123 29.0315 35.6691 26.3923 38.3084 27.3288C40.9476 28.2653 41.0524 34.2576 38.5769 38.2394H31.1307C31.1307 38.2394 32.0345 31.9589 34.0188 29.0381L34.0123 29.0315Z" fill="#FFCF01"/>
<path d="M29.3691 26.1369C33.901 26.2416 34.5035 24.6241 34.5035 24.6241C37.85 16.261 36.6122 11.7619 36.6122 11.7619C36.4682 7.42646 7.27285 7.42646 7.12877 11.7619C7.12877 11.7619 6.10713 16.9159 9.23754 24.6241C9.23754 24.6241 9.49295 26.6608 18.7532 26.1434H29.3625L29.3691 26.1369Z" fill="#BDE1E8"/>
<path d="M39.1735 32.1683C39.3609 31.0188 38.581 29.9351 37.4316 29.7477C36.2821 29.5603 35.1983 30.3402 35.0109 31.4896C34.8235 32.6391 35.6034 33.7228 36.7529 33.9103C37.9024 34.0977 38.9861 33.3178 39.1735 32.1683Z" fill="#E7EEF1"/>
<path d="M39.4479 37.6172H4.29308C3.7831 37.6172 3.36967 38.0306 3.36967 38.5406V39.3985C3.36967 39.9085 3.7831 40.3219 4.29308 40.3219H39.4479C39.9579 40.3219 40.3713 39.9085 40.3713 39.3985V38.5406C40.3713 38.0306 39.9579 37.6172 39.4479 37.6172Z" fill="#C8CFD3"/>
<path d="M38.3734 8.08491C38.5351 7.37612 38.0916 6.67046 37.3828 6.50878C36.674 6.34709 35.9684 6.79061 35.8067 7.4994C35.645 8.20819 36.0885 8.91385 36.7973 9.07553C37.5061 9.23721 38.2118 8.7937 38.3734 8.08491Z" fill="#E7EEF1"/>
<path d="M7.41974 8.10364C7.59291 7.39757 7.1609 6.68481 6.45483 6.51164C5.74876 6.33847 5.036 6.77048 4.86283 7.47655C4.68967 8.18262 5.12167 8.89538 5.82774 9.06855C6.53381 9.24172 7.24658 8.80971 7.41974 8.10364Z" fill="#E7EEF1"/>
<path d="M9.85313 7.18427C9.85313 7.18427 23.7893 5.15409 33.8289 7.18427L35.3417 2.76371C22.7088 -0.589359 8.34687 2.75716 8.34687 2.75716L9.85968 7.17772L9.85313 7.18427Z" fill="white"/>
<path d="M38.717 32.2017C38.9223 31.3025 38.3598 30.4072 37.4606 30.2019C36.5615 29.9966 35.6661 30.5592 35.4608 31.4583C35.2556 32.3575 35.8181 33.2528 36.7173 33.4581C37.6164 33.6634 38.5118 33.1009 38.717 32.2017Z" fill="#FF4438"/>
<path d="M37.0903 8.69054C37.5858 8.69054 37.9875 8.28884 37.9875 7.79333C37.9875 7.29781 37.5858 6.89612 37.0903 6.89612C36.5948 6.89612 36.1931 7.29781 36.1931 7.79333C36.1931 8.28884 36.5948 8.69054 37.0903 8.69054Z" fill="#FF4438"/>
<path d="M6.10709 8.69054C6.6026 8.69054 7.00429 8.28884 7.00429 7.79333C7.00429 7.29781 6.6026 6.89612 6.10709 6.89612C5.61157 6.89612 5.20988 7.29781 5.20988 7.79333C5.20988 8.28884 5.61157 8.69054 6.10709 8.69054Z" fill="#FF4438"/>
<path d="M36.6646 30.5837C37.0641 30.4921 37.7714 30.4986 37.8762 30.8981C37.9089 31.0291 37.8303 31.1732 37.7125 31.2386C37.5946 31.3041 37.4439 31.3041 37.3064 31.3041H36.9921C36.8676 31.3041 36.7367 31.3041 36.6188 31.2648C36.5009 31.2255 36.3896 31.1339 36.3634 31.016C36.3175 30.8326 36.4747 30.6427 36.6581 30.5837" fill="#ED745C"/>
<path d="M36.7956 7.2104C37.051 7.15145 37.5029 7.158 37.5749 7.40686C37.6011 7.492 37.5487 7.58369 37.4702 7.62298C37.3916 7.66227 37.2999 7.66882 37.2082 7.66882H37.0052C36.9266 7.66882 36.8415 7.66882 36.7694 7.64263C36.6908 7.61643 36.6253 7.55749 36.6057 7.48545C36.5795 7.36757 36.6777 7.24969 36.7956 7.2104Z" fill="#ED745C"/>
<path d="M5.81896 7.2104C6.07437 7.15145 6.52625 7.158 6.59829 7.40686C6.62448 7.492 6.57209 7.58369 6.4935 7.62298C6.41491 7.66227 6.32323 7.66882 6.23154 7.66882H6.02853C5.94994 7.66882 5.8648 7.66882 5.79276 7.64263C5.71418 7.61643 5.64869 7.55749 5.62904 7.48545C5.60284 7.36757 5.70108 7.24969 5.81896 7.2104Z" fill="#ED745C"/>
<path d="M23.619 15.9205C23.619 16.2283 23.8679 16.4706 24.1691 16.4706C24.4704 16.4706 24.7193 16.2218 24.7193 15.9205C24.7193 15.6193 24.4704 15.3704 24.1691 15.3704C23.8679 15.3704 23.619 15.6193 23.619 15.9205Z" fill="#F5AB93"/>
<path d="M18.1048 15.9205C18.1048 16.2283 17.8559 16.4706 17.5547 16.4706C17.2534 16.4706 17.0045 16.2218 17.0045 15.9205C17.0045 15.6193 17.2534 15.3704 17.5547 15.3704C17.8559 15.3704 18.1048 15.6193 18.1048 15.9205Z" fill="#F5AB93"/>
<path d="M23.1802 19.4898C23.1671 19.3719 23.154 19.3064 23.154 19.3064L20.9732 18.9855L18.7793 19.3195C18.7793 19.3195 18.7858 19.3719 18.7793 19.4964C18.7138 20.0792 18.3405 21.9195 18.609 23.5829C18.609 23.5829 19.1657 23.6811 20.8422 23.6811H21.1107C22.8004 23.6811 23.3046 23.5829 23.3046 23.5829C23.5731 21.9195 23.2522 20.0727 23.1868 19.4964L23.1802 19.4898Z" fill="#A1CE58"/>
<path d="M23.3242 22.9608C23.3177 23.0197 23.3046 23.0787 23.2981 23.1376C23.2981 23.1376 22.7938 23.2359 21.1041 23.2359H20.8356C19.1526 23.2359 18.6024 23.1376 18.6024 23.1376C18.5959 23.0787 18.5828 23.0197 18.5762 22.9608H18.5304C18.5435 23.1704 18.5697 23.3799 18.6024 23.583C18.6024 23.583 19.1133 23.6353 20.7963 23.6353L21.0845 23.5371C22.7741 23.5371 23.2981 23.5764 23.2981 23.5764C23.3308 23.3734 23.357 23.1638 23.3701 22.9543H23.3242V22.9608Z" fill="#A1CE58"/>
<path d="M20.9273 19.7583C21.8639 19.7583 22.5973 19.647 23.1802 19.4767C23.1671 19.3719 23.1998 19.3195 23.1998 19.3195L20.9797 18.9855L18.7858 19.3195C18.7858 19.3195 18.7924 19.3719 18.7858 19.4964V19.5095C19.349 19.6666 20.0498 19.7649 20.9339 19.7649L20.9273 19.7583Z" fill="#A1CE58"/>
<path d="M23.1409 19.2998C23.1409 19.2998 24.4703 20.3935 25.0139 22.404C25.0139 22.404 24.7912 22.869 24.1756 22.6987L22.7021 19.5552L23.1409 19.2998Z" fill="#A1CE58"/>
<path d="M22.7415 19.542L24.0513 22.3254C24.6669 22.4956 24.9092 22.0307 24.9092 22.0307C24.8568 21.8407 24.8306 21.7949 24.7782 21.6508C24.2936 20.3672 23.4291 19.5289 23.1999 19.3194C23.1606 19.2801 23.1409 19.2997 23.1017 19.3194L22.7415 19.542Z" fill="#A1CE58"/>
<path d="M18.7793 19.3195C18.7793 19.3195 17.6267 20.4721 17.6267 22.5809L18.3012 22.7708C18.3012 22.7708 18.5894 20.3739 18.7793 20.3739C18.9692 20.3739 18.7793 19.3195 18.7793 19.3195Z" fill="#A1CE58"/>
<path d="M24.7781 22.7643L24.3263 22.7053C24.1036 22.6726 23.9399 22.4565 23.9726 22.2207L23.9988 21.9981C24.025 21.7623 24.2346 21.592 24.4572 21.6248L24.9091 21.6837L24.7781 22.7643Z" fill="#F6C0A1"/>
<path d="M24.7781 22.7643L24.3263 22.7053C24.1036 22.6726 23.9399 22.4565 23.9726 22.2207L23.9988 21.9981C24.025 21.7623 24.2346 21.592 24.4572 21.6248L24.9091 21.6837L24.7781 22.7643Z" fill="#F6C0A1"/>
<path d="M24.6602 21.6444L24.5227 22.725L24.8567 22.7185L24.9091 21.6837L24.6602 21.6444Z" fill="#F6C0A1"/>
<path d="M24.6603 21.6444L24.5293 22.725L24.8109 22.7578C24.896 22.7709 24.9681 22.6988 24.9615 22.6071L24.9157 21.6772L24.6668 21.6444H24.6603Z" fill="#F6C0A1"/>
<path d="M24.7782 22.319L24.4245 22.6857C24.49 22.7119 25.0074 23.0393 25.0794 22.2928L25.1908 21.985C25.217 21.9129 25.2825 21.6903 25.2039 21.5593L24.9485 21.4479C24.883 21.4217 24.9288 21.6182 24.9026 21.6903L24.6996 22.1421C24.6734 22.2142 24.7061 22.2928 24.7716 22.319H24.7782Z" fill="#F6C0A1"/>
<path d="M18.3667 22.6597L18.2881 23.0527C18.2488 23.2492 18.0589 23.3736 17.8624 23.3408L17.679 23.3081C17.4825 23.2688 17.3581 23.0789 17.3909 22.8824L17.4694 22.4895L18.3601 22.6663L18.3667 22.6597Z" fill="#F6C0A1"/>
<path d="M18.3667 22.6597L18.2881 23.0527C18.2488 23.2492 18.0589 23.3736 17.8624 23.3408L17.679 23.3081C17.4825 23.2688 17.3581 23.0789 17.3909 22.8824L17.4694 22.4895L18.3601 22.6663L18.3667 22.6597Z" fill="#F6C0A1"/>
<path d="M17.4367 22.7054L18.3274 22.8757L18.3339 22.581L17.476 22.4827L17.4367 22.7054Z" fill="#F6C0A1"/>
<path d="M17.4367 22.7054L18.3273 22.8822L18.3732 22.6399C18.3863 22.5678 18.3339 22.5023 18.2553 22.5023H17.476L17.4301 22.7119L17.4367 22.7054Z" fill="#F6C0A1"/>
<path d="M17.8887 22.4891L18.3274 22.5219C18.3078 22.4629 17.7577 22.2861 17.6987 22.3123L17.2338 22.4891C17.1748 22.5088 17.1421 22.5808 17.1683 22.6398L17.2141 22.7577C17.2338 22.8166 17.3058 22.8493 17.3647 22.8231L17.8297 22.6463C17.8887 22.6267 17.9214 22.5546 17.8952 22.4957L17.8887 22.4891Z" fill="#F6C0A1"/>
<path d="M20.0171 18.1539V19.2868C20.0171 19.8435 20.3969 20.2954 20.8684 20.2954C21.34 20.2954 21.7198 19.8435 21.7198 19.2868V18.1539H20.0236H20.0171Z" fill="#F5AB93"/>
<path d="M21.0649 20.6423C21.0649 20.6423 21.1173 20.6751 21.1435 20.7013C21.1697 20.7275 21.2024 20.7667 21.2286 20.8126C21.2548 20.8519 21.2745 20.8977 21.2941 20.9501C21.3203 21.0091 21.3399 21.0746 21.353 21.1466C21.3661 21.2055 21.3792 21.2579 21.3792 21.3103C21.4447 21.3234 21.5102 21.3431 21.5692 21.3627C21.6019 21.3758 21.6346 21.3889 21.6674 21.402C21.7067 21.4216 21.7394 21.4347 21.7787 21.4544C21.818 21.474 21.8639 21.5068 21.8966 21.5461C21.9097 21.5657 21.9228 21.5854 21.9293 21.605C21.9359 21.6312 21.9424 21.6509 21.9359 21.6771C21.9359 21.6967 21.9228 21.7229 21.9097 21.7491C21.8966 21.7687 21.8835 21.7949 21.8704 21.8146C21.8377 21.8539 21.7984 21.8866 21.746 21.9194C21.7001 21.9456 21.6543 21.9718 21.5954 21.9914C21.5495 22.0111 21.5037 22.0242 21.4578 22.0307C21.4578 22.0438 21.4578 22.0569 21.4578 22.07C21.4578 22.1027 21.4578 22.142 21.4578 22.1879C21.4578 22.2796 21.4382 22.3647 21.412 22.4433C21.3989 22.4826 21.3858 22.5219 21.3661 22.5546C21.3465 22.5874 21.3268 22.6201 21.3006 22.6398C21.2745 22.6594 21.2417 22.6725 21.209 22.679C21.1762 22.679 21.1369 22.679 21.0976 22.6594C21.0583 22.6398 21.0256 22.6201 20.9863 22.5874C20.9536 22.5612 20.9208 22.5219 20.8881 22.476C20.8357 22.4105 20.7964 22.332 20.7571 22.2599C20.744 22.2796 20.7243 22.2992 20.7047 22.3254C20.6785 22.3581 20.6392 22.3843 20.6065 22.4171C20.5672 22.4498 20.5279 22.476 20.482 22.4957C20.4362 22.5219 20.3969 22.5415 20.3576 22.5481C20.3118 22.5612 20.2725 22.5677 20.2397 22.5612C20.2332 22.5612 20.2201 22.5612 20.2135 22.5612C20.207 22.5612 20.1939 22.5612 20.1873 22.5481C20.1742 22.5415 20.1546 22.5284 20.1415 22.5153C20.1284 22.5022 20.1153 22.4826 20.1022 22.4629C20.0891 22.4433 20.0825 22.4171 20.076 22.3909C20.076 22.3647 20.0629 22.3385 20.0629 22.3058C20.0629 22.2796 20.0629 22.2468 20.0629 22.2141C20.0629 22.1486 20.076 22.0831 20.1022 22.0045C20.1153 21.9521 20.1349 21.8997 20.1546 21.8473C20.1349 21.8408 20.1153 21.8277 20.0956 21.8146C20.076 21.8015 20.0498 21.7818 20.0301 21.7622C19.9843 21.7229 19.945 21.6771 19.9123 21.6312C19.873 21.5788 19.8468 21.533 19.8337 21.4806C19.8271 21.4544 19.8206 21.4282 19.8206 21.4085C19.8206 21.3954 19.8206 21.3824 19.8206 21.3627C19.8206 21.3496 19.8206 21.3365 19.8337 21.3169C19.8402 21.2972 19.8533 21.271 19.873 21.2579C19.8926 21.2448 19.9123 21.2252 19.9385 21.2121C19.9909 21.1859 20.0498 21.1728 20.1022 21.1662C20.1677 21.1531 20.2332 21.1531 20.2987 21.1466C20.3641 21.1466 20.4231 21.1466 20.482 21.1597C20.5344 21.0353 20.5803 20.937 20.6392 20.8584C20.6785 20.7995 20.7178 20.7602 20.7636 20.7209C20.7898 20.7013 20.8095 20.6816 20.8357 20.6685C20.8619 20.6554 20.8815 20.6423 20.9077 20.6358C20.947 20.6227 20.9928 20.6227 21.0321 20.6358C21.0387 20.6358 21.0452 20.6358 21.0583 20.6423" fill="#FFCF01"/>
<path d="M18.7597 11.3298L19.3622 10.6421C19.408 10.5897 19.4604 10.5373 19.5259 10.5439C19.611 10.557 19.6438 10.6683 19.6503 10.7535C19.6634 10.9303 19.67 11.1006 19.6569 11.2774C20.875 10.6028 22.3616 10.4653 23.6779 10.8975C23.619 11.166 23.4815 11.4215 23.2785 11.6048C23.9334 11.7751 24.5424 12.1549 24.9812 12.6789L24.5752 12.8753C25.4396 13.969 24.5228 16.1433 24.3525 16.3725C22.7676 16.7523 21.8311 16.3856 20.207 16.4445C19.4277 16.4707 18.6287 16.4642 17.8952 16.1957C17.8166 16.1695 17.738 16.1367 17.6856 16.0647C17.6463 16.0123 17.6332 15.9468 17.6136 15.8813C17.463 15.1937 17.3582 14.4864 17.4171 13.7856C17.4761 13.0849 17.7184 12.3776 18.1965 11.8733C17.928 11.6834 17.7446 11.3756 17.6987 11.0416C18.0655 10.9827 18.4584 11.0875 18.7531 11.3232L18.7597 11.3298Z" fill="#78534D"/>
<path d="M17.6988 14.5846L17.6398 15.3508C17.5023 17.1649 18.8972 18.7497 20.7506 18.8872C22.6105 19.0313 24.2215 17.6757 24.3656 15.8616L24.4245 15.1085C24.4245 15.1085 23.1933 15.0233 21.9949 13.2486C21.949 13.1831 21.877 13.1241 21.7657 13.1176C21.6543 13.111 19.8075 12.7639 19.5652 12.7443C19.4146 12.7312 17.8494 12.3252 17.7053 14.5846" fill="#F6C0A1"/>
<path opacity="0.1" d="M20.7964 15.3705C20.7636 15.8486 20.3314 16.2087 19.8402 16.1695C19.349 16.1302 18.9757 15.7176 19.0085 15.2395" stroke="#211F1F" stroke-width="0.0625422" stroke-linecap="round" stroke-linejoin="round"/>
<path opacity="0.1" d="M22.5253 15.3705C22.4926 15.8486 22.0603 16.2087 21.5691 16.1695C21.078 16.1302 20.7047 15.7176 20.7374 15.2395" stroke="#211F1F" stroke-width="0.0625422" stroke-linecap="round" stroke-linejoin="round"/>
<path d="M21.6936 14.2768C21.2941 14.2768 20.9536 14.5322 20.8292 14.8924C20.7047 14.5322 20.3642 14.2768 19.9647 14.2768C19.4604 14.2768 19.0479 14.6894 19.0479 15.1937C19.0479 15.6979 19.4604 16.1105 19.9647 16.1105C20.3642 16.1105 20.7047 15.8551 20.8292 15.4949C20.9536 15.8551 21.2941 16.1105 21.6936 16.1105C22.1979 16.1105 22.6105 15.6979 22.6105 15.1937C22.6105 14.6894 22.1979 14.2768 21.6936 14.2768Z" fill="white"/>
<path d="M21.7198 15.8486C22.0055 15.8486 22.2372 15.617 22.2372 15.3312C22.2372 15.0455 22.0055 14.8139 21.7198 14.8139C21.4341 14.8139 21.2024 15.0455 21.2024 15.3312C21.2024 15.617 21.4341 15.8486 21.7198 15.8486Z" fill="#2899D5"/>
<path d="M21.7198 15.5146C21.8355 15.5146 21.9293 15.4207 21.9293 15.305C21.9293 15.1893 21.8355 15.0954 21.7198 15.0954C21.604 15.0954 21.5102 15.1893 21.5102 15.305C21.5102 15.4207 21.604 15.5146 21.7198 15.5146Z" fill="#211F1F"/>
<path d="M19.4932 15.3967C19.5619 15.3967 19.6176 15.341 19.6176 15.2723C19.6176 15.2036 19.5619 15.1479 19.4932 15.1479C19.4244 15.1479 19.3687 15.2036 19.3687 15.2723C19.3687 15.341 19.4244 15.3967 19.4932 15.3967Z" fill="#FDF9E7"/>
<path d="M22.2437 15.7634C22.3631 15.7634 22.4598 15.6667 22.4598 15.5473C22.4598 15.4279 22.3631 15.3312 22.2437 15.3312C22.1243 15.3312 22.0276 15.4279 22.0276 15.5473C22.0276 15.6667 22.1243 15.7634 22.2437 15.7634Z" fill="#FDF9E7"/>
<path d="M19.9909 15.8486C20.2766 15.8486 20.5082 15.617 20.5082 15.3312C20.5082 15.0455 20.2766 14.8139 19.9909 14.8139C19.7051 14.8139 19.4735 15.0455 19.4735 15.3312C19.4735 15.617 19.7051 15.8486 19.9909 15.8486Z" fill="#2899D5"/>
<path d="M19.9777 15.4949C20.0935 15.4949 20.1873 15.4011 20.1873 15.2854C20.1873 15.1696 20.0935 15.0758 19.9777 15.0758C19.862 15.0758 19.7682 15.1696 19.7682 15.2854C19.7682 15.4011 19.862 15.4949 19.9777 15.4949Z" fill="#211F1F"/>
<path opacity="0.5" d="M21.2483 14.1589C21.3792 14.041 21.5561 13.969 21.746 13.9755C21.9162 13.9821 22.0669 14.0476 22.1782 14.1524" stroke="#4C3A2E" stroke-width="0.084296" stroke-linecap="round" stroke-linejoin="round"/>
<path opacity="0.5" d="M19.408 14.1589C19.539 14.041 19.7158 13.969 19.9058 13.9755C20.076 13.9821 20.2267 14.0476 20.338 14.1524" stroke="#4C3A2E" stroke-width="0.084296" stroke-linecap="round" stroke-linejoin="round"/>
<path opacity="0.1" d="M20.5803 16.916H20.9667" stroke="#211F1F" stroke-width="0.0571037" stroke-linecap="round" stroke-linejoin="round"/>
<path d="M18.7138 17.0667C18.9236 17.0667 19.0937 16.8967 19.0937 16.6869C19.0937 16.4771 18.9236 16.3071 18.7138 16.3071C18.504 16.3071 18.334 16.4771 18.334 16.6869C18.334 16.8967 18.504 17.0667 18.7138 17.0667Z" fill="#EA8B8B"/>
<path d="M22.82 17.0667C23.0298 17.0667 23.1999 16.8967 23.1999 16.6869C23.1999 16.4771 23.0298 16.3071 22.82 16.3071C22.6103 16.3071 22.4402 16.4771 22.4402 16.6869C22.4402 16.8967 22.6103 17.0667 22.82 17.0667Z" fill="#EA8B8B"/>
<path d="M19.8402 17.2958V17.3089C19.8402 17.6626 20.279 18.1472 20.8226 18.1472C21.3661 18.1472 21.8049 17.6626 21.8049 17.3089V17.2958H19.8337H19.8402Z" fill="white" stroke="#4C3A2E" stroke-width="0.0299115" stroke-linecap="round" stroke-linejoin="round"/>
<path d="M32.1851 24.0674C33.1151 23.6679 33.0168 22.8231 33.0168 22.8231C33.0365 19.7712 31.4975 19.1033 31.4975 19.1033C30.2663 18.1406 28.1444 18.3501 28.1444 18.3501C28.1444 18.3501 26.4679 18.3763 25.3087 21.1989C25.3087 21.1989 24.8306 22.2206 25.3349 22.7052" fill="#2899D5"/>
<path d="M29.3297 17.6692L29.1857 18.2848C29.0481 18.8676 29.3428 19.4308 29.8406 19.5487C30.3383 19.6666 30.8557 19.2868 30.9866 18.7039L31.1307 18.0883L29.3232 17.6692H29.3297Z" fill="#EAB296"/>
<path d="M29.8537 19.5945L29.4476 19.5749L29.0875 19.7517L28.6945 18.324L29.2315 18.2913L29.1791 18.5205L29.8537 19.5945Z" fill="white"/>
<path d="M29.8406 19.5879L30.2138 19.7516L30.4824 20.0791L31.4123 19.0378L30.9408 18.7104L30.8818 18.9592L29.8406 19.5879Z" fill="white"/>
<path d="M34.0123 16.9094C33.9468 17.1779 33.6849 17.3417 33.4164 17.2827C33.1479 17.2238 32.9841 16.9553 33.0431 16.6868C33.102 16.4183 33.3705 16.2545 33.639 16.3135C33.9075 16.3724 34.0713 16.6409 34.0123 16.9094Z" fill="#F4AA92"/>
<path d="M28.295 15.58C28.2295 15.8485 27.9676 16.0122 27.6991 15.9533C27.4305 15.8943 27.2668 15.6258 27.3258 15.3573C27.3847 15.0888 27.6532 14.9251 27.9217 14.984C28.1902 15.0429 28.354 15.3115 28.295 15.58Z" fill="#F4AA92"/>
<path d="M28.4325 13.0521C28.4128 13.1045 28.3932 13.1568 28.3801 13.2158L27.9348 15.1215C27.5615 16.7195 28.5569 18.3109 30.1483 18.6842C31.7397 19.0575 33.3377 18.062 33.7044 16.4706L34.1497 14.5649C34.1628 14.5125 34.1628 14.4535 34.1759 14.3946L28.4325 13.0586V13.0521Z" fill="#F5BFA0"/>
<path d="M28.4456 14.5911C28.4456 14.6369 28.4456 14.6893 28.4325 14.7352L28.4456 14.5911Z" fill="#F5AB93"/>
<path opacity="0.1" d="M30.7574 15.7044C30.6395 16.0908 30.2204 16.3004 29.8274 16.1759C29.4345 16.0515 29.2053 15.6455 29.3232 15.2591" stroke="#211F1F" stroke-width="0.0516653" stroke-linecap="round" stroke-linejoin="round"/>
<path opacity="0.1" d="M32.1655 16.0318C32.0476 16.4182 31.6284 16.6277 31.2355 16.5033C30.8426 16.3789 30.6133 15.9728 30.7312 15.5865" stroke="#211F1F" stroke-width="0.0516653" stroke-linecap="round" stroke-linejoin="round"/>
<path d="M31.6939 14.9775C31.3665 14.8989 31.039 15.0495 30.8687 15.3115C30.836 14.9971 30.6068 14.722 30.2793 14.6435C29.8667 14.5452 29.4542 14.8072 29.3559 15.2198C29.2577 15.6324 29.5196 16.0449 29.9322 16.1432C30.2597 16.2218 30.5871 16.0711 30.7574 15.8092C30.7901 16.1235 31.0194 16.3986 31.3468 16.4772C31.7594 16.5754 32.172 16.3134 32.2702 15.9009C32.3684 15.4883 32.1065 15.0757 31.6939 14.9775Z" fill="white"/>
<path d="M31.5171 16.2807C31.7594 16.2807 31.9559 16.0843 31.9559 15.8419C31.9559 15.5996 31.7594 15.4031 31.5171 15.4031C31.2748 15.4031 31.0783 15.5996 31.0783 15.8419C31.0783 16.0843 31.2748 16.2807 31.5171 16.2807Z" fill="#C98465"/>
<path d="M31.5236 15.9926C31.6177 15.9926 31.6939 15.9164 31.6939 15.8223C31.6939 15.7283 31.6177 15.6521 31.5236 15.6521C31.4296 15.6521 31.3534 15.7283 31.3534 15.8223C31.3534 15.9164 31.4296 15.9926 31.5236 15.9926Z" fill="#211F1F"/>
<path d="M29.7161 15.4752C29.774 15.4752 29.8209 15.4283 29.8209 15.3704C29.8209 15.3126 29.774 15.2657 29.7161 15.2657C29.6582 15.2657 29.6113 15.3126 29.6113 15.3704C29.6113 15.4283 29.6582 15.4752 29.7161 15.4752Z" fill="#FDF9E7"/>
<path d="M31.9035 16.307C32.0048 16.307 32.0869 16.2249 32.0869 16.1236C32.0869 16.0223 32.0048 15.9402 31.9035 15.9402C31.8023 15.9402 31.7202 16.0223 31.7202 16.1236C31.7202 16.2249 31.8023 16.307 31.9035 16.307Z" fill="#FDF9E7"/>
<path d="M30.1025 15.9533C30.3449 15.9533 30.5413 15.7569 30.5413 15.5145C30.5413 15.2722 30.3449 15.0757 30.1025 15.0757C29.8602 15.0757 29.6637 15.2722 29.6637 15.5145C29.6637 15.7569 29.8602 15.9533 30.1025 15.9533Z" fill="#C98465"/>
<path d="M30.1091 15.6454C30.2031 15.6454 30.2793 15.5692 30.2793 15.4752C30.2793 15.3811 30.2031 15.3049 30.1091 15.3049C30.015 15.3049 29.9388 15.3811 29.9388 15.4752C29.9388 15.5692 30.015 15.6454 30.1091 15.6454Z" fill="#211F1F"/>
<path d="M30.4103 15.9598C30.5116 15.9598 30.5937 15.8777 30.5937 15.7764C30.5937 15.6751 30.5116 15.593 30.4103 15.593C30.3091 15.593 30.227 15.6751 30.227 15.7764C30.227 15.8777 30.3091 15.9598 30.4103 15.9598Z" fill="#FDF9E7"/>
<path opacity="0.5" d="M31.3534 14.794C31.4844 14.722 31.6415 14.6958 31.7922 14.7416C31.9297 14.7809 32.041 14.8661 32.1131 14.9709" stroke="#4C3A2E" stroke-width="0.0706999" stroke-linecap="round" stroke-linejoin="round"/>
<path opacity="0.5" d="M29.8537 14.4471C29.9846 14.375 30.1418 14.3488 30.2924 14.3947C30.43 14.434 30.5413 14.5191 30.6133 14.6239" stroke="#4C3A2E" stroke-width="0.0706999" stroke-linecap="round" stroke-linejoin="round"/>
<path opacity="0.1" d="M30.7508 17.0339L30.3907 16.9488" stroke="#211F1F" stroke-width="0.0489461" stroke-linecap="round" stroke-linejoin="round"/>
<path d="M28.8058 16.6999C28.983 16.6999 29.1267 16.5562 29.1267 16.379C29.1267 16.2017 28.983 16.0581 28.8058 16.0581C28.6286 16.0581 28.4849 16.2017 28.4849 16.379C28.4849 16.5562 28.6286 16.6999 28.8058 16.6999Z" fill="#EFA08B"/>
<path d="M32.1589 17.4791C32.3361 17.4791 32.4798 17.3355 32.4798 17.1582C32.4798 16.981 32.3361 16.8373 32.1589 16.8373C31.9817 16.8373 31.838 16.981 31.838 17.1582C31.838 17.3355 31.9817 17.4791 32.1589 17.4791Z" fill="#EFA08B"/>
<path d="M29.4083 12.9276C29.4083 12.9276 27.6139 13.0127 27.902 15.2525C28.4063 14.722 29.1136 13.3467 30.4365 13.5235C31.7659 13.7003 29.4017 12.921 29.4017 12.921L29.4083 12.9276Z" fill="#A08B47"/>
<path d="M33.8092 13.8772C33.8092 13.8772 35.2435 14.9644 33.7307 16.6474C33.6128 15.9271 33.8092 14.3946 32.6173 13.7921C31.4189 13.1896 33.8092 13.8772 33.8092 13.8772Z" fill="#A08B47"/>
<path d="M28.7141 13.183L33.8747 14.2178C33.8747 14.2178 34.7392 13.4908 34.6737 12.7836C34.5361 11.2773 33.9598 11.3362 32.1392 10.9171C30.3186 10.498 28.5373 10.8844 28.5766 12.0697C28.5897 12.4627 28.701 13.1896 28.7141 13.1896V13.183Z" fill="#2899D5"/>
<path d="M30.5675 12.5216C31.3534 12.705 32.041 12.8229 32.5977 12.8687C33.4097 12.9342 33.6717 11.7816 32.9055 11.5C32.6435 11.4018 32.3488 11.3166 32.0214 11.2446C31.1045 11.0285 30.0632 11.0874 29.3494 11.3101C29.1267 11.3821 28.9499 11.5589 28.8844 11.7882C28.7993 12.0829 28.8648 12.1353 30.5675 12.5282V12.5216Z" fill="#00B0DF"/>
<path d="M34.3266 14.4275C34.4249 14.0869 34.2808 13.563 31.8904 12.8492C29.6769 12.1877 28.485 12.5545 28.3802 12.895C28.2754 13.2356 28.0134 13.2749 29.5983 13.7529C31.1831 14.231 34.2153 14.768 34.3201 14.4275H34.3266Z" fill="#333333"/>
<g opacity="0.31">
<path d="M31.1569 13.1437C29.7554 12.7246 29.1988 13.0651 29.1333 13.2813C29.1333 13.2944 29.1333 13.314 29.1333 13.3271C29.4804 13.5891 30.1091 13.9034 30.8622 14.1326C31.6153 14.3618 32.3161 14.4404 32.7483 14.4142C32.7614 14.4011 32.7679 14.388 32.7745 14.3749C32.84 14.1588 32.6697 13.6022 31.1634 13.1503L31.1569 13.1437Z" fill="#484949"/>
</g>
<path d="M29.9585 17.2433V17.2564C29.9192 17.5315 30.1091 17.7869 30.3841 17.8196C30.6592 17.8524 30.9146 17.6624 30.9474 17.3874V17.3743L29.9585 17.2368V17.2433Z" fill="white" stroke="#4C3A2E" stroke-width="0.0326307" stroke-linecap="round" stroke-linejoin="round"/>
<path d="M29.4869 19.5356C27.6991 19.1754 25.957 20.3411 25.6034 22.129C25.2432 23.9169 26.4089 25.6589 28.1968 26.0125C29.9846 26.3727 31.7267 25.207 32.0803 23.4192C32.4405 21.6313 31.2748 19.8893 29.4869 19.5356ZM28.3409 25.2594C26.9721 24.9844 26.0815 23.6484 26.35 22.2796C26.625 20.9109 27.961 20.0202 29.3297 20.2887C30.6985 20.5638 31.5891 21.8998 31.3206 23.2685C31.0456 24.6373 29.7096 25.5279 28.3409 25.2594Z" fill="#333E48"/>
<path d="M29.238 22.7707L30.0305 20.5441C29.369 19.7779 28.3539 20.2952 28.3539 20.2952L28.5177 22.6267L26.1666 22.1551L25.957 23.2095L28.7469 23.2423L31.2289 24.3949L31.5171 22.9345L29.2315 22.7576L29.238 22.7707Z" fill="#333E48"/>
<path d="M32.6501 23.249C32.6108 23.5764 32.4798 23.9104 32.2048 24.0872C32.0083 24.2117 31.7529 24.2444 31.5302 24.1724C31.4254 24.1396 31.3206 24.0807 31.2683 23.989C31.2093 23.8973 31.2159 23.7598 31.2944 23.6877C31.229 23.6419 31.2224 23.5502 31.2486 23.4716C31.2748 23.3996 31.3141 23.3275 31.3141 23.249C31.3141 23.1376 31.2421 23.0328 31.2813 22.9281C31.301 22.8691 31.3599 22.8167 31.3665 22.7512C31.3665 22.6988 31.3337 22.6465 31.3272 22.5941C31.3141 22.4696 31.4647 22.391 31.5237 22.2797C31.5499 22.2339 31.5564 22.1749 31.5761 22.1225C31.6415 21.9785 31.838 21.9261 31.9886 21.9654C32.1458 22.0047 32.2702 22.116 32.3881 22.2208C32.3881 22.2208 32.7483 22.4631 32.6501 23.2424V23.249Z" fill="#FFD2B4"/>
<path d="M25.3152 21.9456C25.2301 22.26 25.217 22.6136 25.4069 22.8821C25.5379 23.072 25.7606 23.1965 25.9963 23.2227C26.1077 23.2292 26.219 23.2227 26.3107 23.1506C26.4024 23.0786 26.4482 22.9607 26.4024 22.8625C26.481 22.8494 26.5202 22.7642 26.5268 22.6856C26.5333 22.6071 26.5268 22.5285 26.5464 22.4564C26.5857 22.3582 26.6971 22.2862 26.7036 22.1748C26.7036 22.1093 26.6709 22.0438 26.6971 21.9849C26.7167 21.9325 26.7626 21.9063 26.7888 21.8539C26.8477 21.7426 26.7364 21.6182 26.7298 21.4937C26.7298 21.4413 26.7429 21.3824 26.7364 21.33C26.7364 21.1728 26.5726 21.0484 26.4155 21.0288C26.2583 21.0091 26.1011 21.0615 25.9505 21.1139C25.9505 21.1139 25.5313 21.199 25.3218 21.9522L25.3152 21.9456Z" fill="#FFD2B4"/>
<path d="M10.187 12.6003C8.51705 13.098 7.90145 14.5453 8.23545 16.7785C8.26819 16.9946 8.27474 17.2107 8.27474 17.4334C8.242 18.7497 8.56945 19.6863 9.60418 19.8696L9.25054 19.5094C9.64348 19.791 10.1216 19.8827 10.6913 19.7845L10.3442 19.3719C10.6651 19.6077 11.1366 19.5946 11.7981 19.4898L13.7628 19.0575C14.0509 18.9855 14.3063 18.8676 14.5094 18.7497L14.4635 19.0314C14.7517 18.9724 14.9023 18.7628 15.0595 18.4943C15.1053 18.6057 15.1053 18.7432 15.0791 18.9004C16.9194 17.9835 16.6574 16.975 16.0287 15.6128C15.9043 15.3443 15.8126 15.0561 15.7537 14.768C15.1708 12.024 13.1013 11.0285 10.2001 12.6003H10.187Z" fill="#414042"/>
<path d="M15.0791 19.9024C15.0398 19.791 15.0202 19.7321 15.0202 19.7321L12.8852 19.8827L10.8681 20.6555C10.8681 20.6555 10.8878 20.7079 10.9009 20.8192C10.9598 21.3824 10.986 23.2096 11.5885 24.7355C11.5885 24.7355 12.1321 24.7093 13.73 24.3688L13.9854 24.3164C15.5899 23.9627 16.0484 23.7663 16.0484 23.7663C15.9567 22.129 15.269 20.4459 15.0857 19.9089L15.0791 19.9024Z" fill="#FF4438"/>
<path d="M15.937 23.1571C15.937 23.2161 15.9436 23.275 15.9501 23.3274C15.9501 23.3274 15.4917 23.5239 13.8872 23.8775L13.6318 23.9299C12.0338 24.277 11.4903 24.2967 11.4903 24.2967C11.4706 24.2443 11.451 24.1919 11.4313 24.1329H11.3855C11.4444 24.336 11.5099 24.5324 11.582 24.7158C11.582 24.7158 12.0797 24.6569 13.6776 24.3098L13.933 24.1591C15.5375 23.8055 16.0418 23.74 16.0418 23.74C16.0287 23.537 16.0091 23.334 15.9829 23.131L15.937 23.144V23.1571Z" fill="#FF4438"/>
<path d="M12.9965 20.6162C13.8872 20.4197 14.5617 20.1643 15.0726 19.8827C15.0398 19.7845 15.0595 19.7321 15.0595 19.7321L12.8852 19.8762L10.8681 20.6489C10.8681 20.6489 10.8878 20.7013 10.9009 20.8127V20.8258C11.4706 20.8585 12.1583 20.7996 12.9965 20.6162Z" fill="#FF4438"/>
<path d="M11.9749 19.7778L12.0993 20.3542C12.2172 20.8977 12.6953 21.2579 13.1668 21.1597C13.6384 21.0614 13.92 20.531 13.7955 19.9874L13.6711 19.4111L11.9749 19.7844V19.7778Z" fill="#F5AA92"/>
<path d="M10.8681 20.6489C10.8681 20.6489 10.0167 21.9784 10.4555 23.9823L11.1301 24.0216C11.1301 24.0216 10.9074 21.6836 11.0842 21.6444C11.261 21.6051 10.8616 20.6424 10.8616 20.6424L10.8681 20.6489Z" fill="#FF4438"/>
<path d="M11.1759 23.9039V24.2968C11.189 24.4933 11.0384 24.6505 10.8419 24.657H10.6586C10.4621 24.6636 10.3049 24.5129 10.2984 24.3165V23.9235L11.1759 23.9039Z" fill="#F5BF9F"/>
<path d="M11.1759 23.9039V24.2968C11.189 24.4933 11.0384 24.6505 10.8419 24.657H10.6586C10.4621 24.6636 10.3049 24.5129 10.2984 24.3165V23.9235L11.1759 23.9039Z" fill="#F5BF9F"/>
<path d="M10.2983 24.1397L11.1759 24.12L11.1235 23.8384L10.2918 23.9235L10.2983 24.1397Z" fill="#F5BF9F"/>
<path d="M10.2985 24.1396L11.1826 24.12V23.8777C11.1695 23.8056 11.1041 23.7533 11.0386 23.7664L10.2985 23.917V24.1331V24.1396Z" fill="#F5BF9F"/>
<path d="M10.6782 23.8449L11.0973 23.7794C11.0646 23.727 10.5079 23.6746 10.4555 23.7074L10.0561 23.9693C10.0037 24.0021 9.99057 24.0741 10.0233 24.1265L10.0888 24.2247C10.1215 24.2771 10.1936 24.2902 10.246 24.2575L10.6455 23.9955C10.6979 23.9628 10.711 23.8907 10.6782 23.8383V23.8449Z" fill="#F5BF9F"/>
<path d="M15.0333 19.7256C15.0333 19.7256 16.3627 20.577 16.808 22.581L16.2121 22.9019C16.2121 22.9019 15.4393 20.6818 15.2559 20.7276C15.0726 20.7735 15.0333 19.7256 15.0333 19.7256Z" fill="#FF4438"/>
<path d="M16.1204 22.8165L16.2775 23.1767C16.3561 23.3536 16.5591 23.4387 16.7425 23.3601L16.9062 23.2881C17.0831 23.2095 17.1682 23.0065 17.0896 22.8231L16.9324 22.4629L16.1204 22.8165Z" fill="#F5BF9F"/>
<path d="M16.1204 22.8165L16.2775 23.1767C16.3561 23.3536 16.5591 23.4387 16.7425 23.3601L16.9062 23.2881C17.0831 23.2095 17.1682 23.0065 17.0896 22.8231L16.9324 22.4629L16.1204 22.8165Z" fill="#F5BF9F"/>
<path d="M17.0176 22.6594L16.2055 23.013L16.1335 22.7314L16.9325 22.4629L17.0176 22.6594Z" fill="#F5BF9F"/>
<path d="M17.0176 22.6594L16.2055 23.0131L16.1138 22.7904C16.0876 22.7249 16.1269 22.6463 16.1924 22.6332L16.9324 22.463L17.0176 22.6594Z" fill="#F5BF9F"/>
<path d="M16.5395 22.5481L16.1335 22.666C16.14 22.6071 16.6246 22.3255 16.6901 22.332L17.1682 22.4041C17.2272 22.4106 17.273 22.4696 17.2599 22.5285L17.2403 22.6464C17.2337 22.7053 17.1748 22.7512 17.1158 22.7381L16.6377 22.666C16.5788 22.6595 16.533 22.6005 16.5461 22.5416L16.5395 22.5481Z" fill="#F5BF9F"/>
<path d="M9.23093 16.5558C9.25712 16.6016 9.27677 16.654 9.28987 16.7064L9.23093 16.5558Z" fill="#F5AB93"/>
<path d="M14.9023 16.5362C14.9678 16.8309 15.2625 17.0208 15.5572 16.9553C15.8519 16.8898 16.0418 16.5951 15.9763 16.3004C15.9108 16.0057 15.6227 15.8158 15.3214 15.8813C15.0202 15.9468 14.8368 16.2349 14.9023 16.5362Z" fill="#F5AB93"/>
<path d="M9.55834 17.7085C9.62383 18.0032 9.43391 18.2979 9.1392 18.3634C8.8445 18.4289 8.5498 18.239 8.48431 17.9443C8.41882 17.6496 8.60874 17.3549 8.90344 17.2894C9.19814 17.2239 9.49285 17.4138 9.55834 17.7085Z" fill="#F5AB93"/>
<path d="M9.27675 16.6214C9.30294 16.6672 9.32259 16.7196 9.33569 16.772L9.27675 16.6214Z" fill="#F5AB93"/>
<path d="M8.78557 16.5231L8.95584 17.2893C9.35533 19.1034 11.0974 20.2626 12.8525 19.8762C14.6076 19.4898 15.7078 17.7085 15.3083 15.8944L15.1446 15.1413C15.1446 15.1413 15.2429 14.6763 13.6187 13.2814C13.5598 13.229 12.2172 13.9232 12.1124 13.9428C12.0077 13.9624 12.0339 14.1917 11.8767 14.1917C7.01735 14.2048 9.2309 14.231 8.78557 16.5296" fill="#F5BF9F"/>
<path opacity="0.1" d="M12.0862 16.5952C12.1517 17.0667 11.8177 17.5055 11.3331 17.5775C10.8485 17.6495 10.3966 17.3221 10.3311 16.8506" stroke="#211F1F" stroke-width="0.0625422" stroke-linecap="round" stroke-linejoin="round"/>
<path opacity="0.1" d="M13.7628 16.2284C13.8283 16.6999 13.4943 17.1387 13.0096 17.2107C12.525 17.2827 12.0731 16.9553 12.0076 16.4838" stroke="#211F1F" stroke-width="0.0625422" stroke-linecap="round" stroke-linejoin="round"/>
<path d="M12.7215 15.3443C12.3351 15.4294 12.0601 15.7503 12.0142 16.1236C11.8178 15.8027 11.4314 15.6259 11.045 15.711C10.5538 15.8158 10.2395 16.307 10.3508 16.7981C10.4621 17.2893 10.9468 17.6037 11.4379 17.4923C11.8243 17.4072 12.0994 17.0863 12.1452 16.713C12.3417 17.0339 12.7281 17.2107 13.1145 17.1256C13.6056 17.0208 13.92 16.5296 13.8087 16.0385C13.6973 15.5473 13.2127 15.2329 12.7215 15.3443Z" fill="white"/>
<path d="M12.9703 16.8767C13.2561 16.8767 13.4877 16.6451 13.4877 16.3593C13.4877 16.0736 13.2561 15.842 12.9703 15.842C12.6846 15.842 12.453 16.0736 12.453 16.3593C12.453 16.6451 12.6846 16.8767 12.9703 16.8767Z" fill="#BB7B5A"/>
<path d="M13.0817 16.5297C13.1938 16.5297 13.2847 16.4388 13.2847 16.3267C13.2847 16.2146 13.1938 16.1237 13.0817 16.1237C12.9696 16.1237 12.8787 16.2146 12.8787 16.3267C12.8787 16.4388 12.9696 16.5297 13.0817 16.5297Z" fill="#211F1F"/>
<path d="M10.8026 16.8963C10.8714 16.8963 10.9271 16.8406 10.9271 16.7719C10.9271 16.7031 10.8714 16.6474 10.8026 16.6474C10.7339 16.6474 10.6782 16.7031 10.6782 16.7719C10.6782 16.8406 10.7339 16.8963 10.8026 16.8963Z" fill="#FDF9E7"/>
<path d="M12.4334 16.5035C12.5527 16.5035 12.6495 16.4067 12.6495 16.2874C12.6495 16.168 12.5527 16.0713 12.4334 16.0713C12.314 16.0713 12.2172 16.168 12.2172 16.2874C12.2172 16.4067 12.314 16.5035 12.4334 16.5035Z" fill="#FDF9E7"/>
<path d="M11.2938 17.2435C11.5796 17.2435 11.8112 17.0119 11.8112 16.7261C11.8112 16.4404 11.5796 16.2088 11.2938 16.2088C11.0081 16.2088 10.7765 16.4404 10.7765 16.7261C10.7765 17.0119 11.0081 17.2435 11.2938 17.2435Z" fill="#BB7B5A"/>
<path d="M11.392 16.8767C11.5041 16.8767 11.595 16.7858 11.595 16.6737C11.595 16.5616 11.5041 16.4707 11.392 16.4707C11.2799 16.4707 11.189 16.5616 11.189 16.6737C11.189 16.7858 11.2799 16.8767 11.392 16.8767Z" fill="#211F1F"/>
<path opacity="0.1" d="M12.2041 18.1407L12.5774 18.0556" stroke="#211F1F" stroke-width="0.0571037" stroke-linecap="round" stroke-linejoin="round"/>
<path opacity="0.5" d="M10.3573 18.6908C10.5671 18.6908 10.7371 18.5207 10.7371 18.3109C10.7371 18.1012 10.5671 17.9311 10.3573 17.9311C10.1475 17.9311 9.97745 18.1012 9.97745 18.3109C9.97745 18.5207 10.1475 18.6908 10.3573 18.6908Z" fill="#EA5F9D"/>
<path opacity="0.5" d="M14.3391 17.8197C14.5489 17.8197 14.719 17.6496 14.719 17.4399C14.719 17.2301 14.5489 17.06 14.3391 17.06C14.1293 17.06 13.9593 17.2301 13.9593 17.4399C13.9593 17.6496 14.1293 17.8197 14.3391 17.8197Z" fill="#EA5F9D"/>
<path d="M12.6036 18.717C12.3613 18.7432 12.1321 18.6515 11.9749 18.4878H11.9356C11.9749 18.8414 12.2827 19.0903 12.6298 19.0575C12.9769 19.0182 13.2323 18.7104 13.193 18.3633H13.1668C13.0489 18.5598 12.8459 18.6973 12.597 18.7235" fill="white"/>
<path d="M12.6036 18.717C12.3613 18.7432 12.1321 18.6515 11.9749 18.4878H11.9356C11.9749 18.8414 12.2827 19.0903 12.6298 19.0575C12.9769 19.0182 13.2323 18.7104 13.193 18.3633H13.1668C13.0489 18.5598 12.8459 18.6973 12.597 18.7235" stroke="#4C3A2E" stroke-width="0.0326307" stroke-linecap="round" stroke-linejoin="round"/>
<path d="M10.0233 14.8661C9.32913 15.7961 8.92309 17.3024 9.08682 18.599C9.09337 18.6711 9.04753 18.7431 8.96894 18.7628L9.03443 18.7497L8.68733 17.1517C8.96239 14.578 9.48631 14.2636 10.4228 13.7004L11.3986 13.111L14.6272 12.8622L15.459 15.8026L15.6554 17.2958C15.5768 17.3155 15.5048 17.2696 15.4721 17.1976C15.125 16.3855 13.9331 15.6651 12.7608 15.2918C12.9311 15.5996 13.1341 15.9074 13.4222 16.2021C12.4792 16.2873 11.8832 15.9533 11.2087 15.2067L11.5558 16.0973C10.5734 15.8092 10.2656 15.6389 10.0233 14.8661Z" fill="#414042"/>
<path d="M12.9245 13.8839L13.789 13.838L13.3371 14.5781L12.9245 13.8839Z" fill="#FF6652"/>
<path d="M12.4923 13.1307L12.9245 13.8838L12.0601 13.8118L12.4923 13.1307Z" fill="#FF6652"/>
<path d="M8.8707 13.6022C8.8707 13.6022 7.52161 13.8969 8.30749 17.4923L9.8072 14.0671L8.86415 13.6022H8.8707Z" fill="#414042"/>
<path d="M13.2215 17.5285C13.8398 17.393 14.2927 17.0627 14.2331 16.7906C14.1735 16.5186 13.624 16.4079 13.0057 16.5433C12.3874 16.6788 11.9345 17.0092 11.9941 17.2812C12.0537 17.5533 12.6033 17.664 13.2215 17.5285Z" fill="#F5BF9F"/>
<path d="M11.6122 17.8782C12.2305 17.7427 12.6834 17.4124 12.6238 17.1403C12.5642 16.8683 12.0146 16.7576 11.3963 16.893C10.778 17.0285 10.3252 17.3589 10.3848 17.6309C10.4444 17.903 10.9939 18.0137 11.6122 17.8782Z" fill="#F5BF9F"/>
<path d="M10.7502 16.8767C10.8696 16.8767 10.9664 16.78 10.9664 16.6606C10.9664 16.5412 10.8696 16.4445 10.7502 16.4445C10.6309 16.4445 10.5341 16.5412 10.5341 16.6606C10.5341 16.78 10.6309 16.8767 10.7502 16.8767Z" fill="#FDF9E7"/>
<path d="M12.1648 22.6987C12.1648 22.6987 12.1452 22.7183 12.1321 22.7314C12.119 22.7445 12.1124 22.7642 12.1059 22.7904C12.0993 22.81 12.0928 22.8297 12.0928 22.8559C12.0928 22.8886 12.0862 22.9148 12.0862 22.9541C12.0862 22.9803 12.0862 23.0065 12.0862 23.0327C12.06 23.0458 12.0338 23.0589 12.0076 23.072C11.9945 23.0785 11.9814 23.0916 11.9683 23.0982C11.9552 23.1113 11.9356 23.1244 11.9225 23.1309C11.9094 23.144 11.8898 23.1637 11.8767 23.1833C11.8767 23.1964 11.8701 23.203 11.8636 23.2161C11.8636 23.2292 11.8636 23.2423 11.8636 23.2488C11.8636 23.2554 11.8701 23.2685 11.8832 23.275C11.8898 23.2816 11.8963 23.2947 11.9094 23.3012C11.9291 23.3143 11.9487 23.3274 11.9749 23.334C11.9945 23.3405 12.0207 23.347 12.0469 23.3536C12.0666 23.3536 12.0928 23.3536 12.1124 23.3536V23.3732C12.1124 23.3732 12.119 23.406 12.1255 23.4256C12.1386 23.4649 12.1517 23.5042 12.1714 23.537C12.1845 23.5566 12.191 23.5697 12.2041 23.5828C12.2172 23.5959 12.2303 23.609 12.2434 23.6156C12.2565 23.6221 12.2696 23.6287 12.2892 23.6221C12.3023 23.6221 12.322 23.6156 12.3351 23.6025C12.3482 23.5894 12.3613 23.5763 12.3744 23.5566C12.3875 23.537 12.394 23.5239 12.4071 23.4977C12.4202 23.4649 12.4333 23.4256 12.4464 23.3863C12.453 23.3929 12.4661 23.3994 12.4792 23.4125C12.4923 23.4256 12.5119 23.4322 12.5316 23.4453C12.5512 23.4584 12.5709 23.4649 12.597 23.4715C12.6167 23.478 12.6429 23.4846 12.6625 23.4846C12.6822 23.4846 12.7018 23.4846 12.7149 23.4846H12.728L12.7411 23.4715C12.7411 23.4715 12.7542 23.4584 12.7608 23.4518C12.7608 23.4453 12.7673 23.4387 12.7739 23.4256C12.7739 23.4125 12.7739 23.406 12.7739 23.3929C12.7739 23.3798 12.7739 23.3667 12.7739 23.3536C12.7739 23.3405 12.7739 23.3274 12.7673 23.3143C12.7608 23.2881 12.7477 23.2554 12.728 23.2226C12.7149 23.203 12.7018 23.1768 12.6887 23.1571C12.6953 23.1571 12.7018 23.144 12.7084 23.1375C12.7149 23.1309 12.7215 23.1178 12.7346 23.1047C12.7477 23.0851 12.7608 23.0589 12.7739 23.0327C12.787 23.0065 12.7935 22.9803 12.7935 22.9541C12.7935 22.941 12.7935 22.9279 12.7935 22.9214C12.7935 22.9214 12.7935 22.9083 12.7935 22.9017C12.7935 22.9017 12.7935 22.8886 12.787 22.8821C12.787 22.8755 12.7739 22.8624 12.7608 22.8559C12.7542 22.8559 12.7411 22.8428 12.728 22.8428C12.7018 22.8428 12.6756 22.8428 12.6494 22.8428C12.6167 22.8428 12.5905 22.8428 12.5578 22.8559C12.5316 22.8559 12.4988 22.869 12.4726 22.8821C12.4333 22.8297 12.4071 22.7904 12.3744 22.7642C12.3482 22.7445 12.3285 22.7249 12.3023 22.7118C12.2892 22.7052 12.2761 22.6987 12.263 22.6987C12.25 22.6987 12.2369 22.6987 12.2303 22.6987C12.2107 22.6987 12.191 22.6987 12.1779 22.7118H12.1648" fill="#FFCF01"/>
<path d="M14.398 22.2076C14.398 22.2076 14.3784 22.2273 14.3653 22.2404C14.3522 22.2535 14.3456 22.2731 14.3391 22.2993C14.3325 22.3189 14.326 22.3386 14.326 22.3648C14.326 22.3975 14.3194 22.4237 14.3194 22.463C14.3194 22.4892 14.3194 22.5154 14.3194 22.5416C14.2932 22.5547 14.267 22.5678 14.2408 22.5809C14.2278 22.5875 14.2147 22.6005 14.2016 22.6071C14.1885 22.6202 14.1688 22.6333 14.1557 22.6398C14.1426 22.6529 14.123 22.6726 14.1099 22.6922C14.1099 22.7053 14.1033 22.7119 14.0968 22.725C14.0968 22.7381 14.0968 22.7512 14.0968 22.7577C14.0968 22.7643 14.1033 22.7774 14.1164 22.7839C14.123 22.7905 14.1295 22.8036 14.1426 22.8101C14.1623 22.8232 14.1819 22.8363 14.2081 22.8429C14.2278 22.8494 14.2539 22.856 14.2801 22.8625C14.2998 22.8625 14.326 22.8625 14.3456 22.8625V22.8822C14.3456 22.8822 14.3522 22.9149 14.3587 22.9345C14.3718 22.9738 14.3849 23.0131 14.4046 23.0459C14.4177 23.0655 14.4242 23.0786 14.4373 23.0917C14.4504 23.1048 14.4635 23.1179 14.4766 23.1245C14.4897 23.131 14.5028 23.1376 14.5225 23.131C14.5356 23.131 14.5552 23.1245 14.5683 23.1114C14.5814 23.0983 14.5945 23.0852 14.6076 23.0655C14.6207 23.0459 14.6272 23.0328 14.6403 23.0066C14.6534 22.9738 14.6665 22.9345 14.6796 22.8953C14.6862 22.9018 14.6993 22.9084 14.7124 22.9214C14.7255 22.9345 14.7451 22.9411 14.7648 22.9542C14.7844 22.9673 14.8041 22.9738 14.8303 22.9804C14.8499 22.9869 14.8761 22.9935 14.8957 22.9935C14.9154 22.9935 14.935 22.9935 14.9481 22.9935H14.9612L14.9743 22.9804C14.9743 22.9804 14.9874 22.9673 14.994 22.9607C14.994 22.9542 15.0005 22.9476 15.0071 22.9345C15.0071 22.9214 15.0071 22.9149 15.0071 22.9018C15.0071 22.8887 15.0071 22.8756 15.0071 22.8625C15.0071 22.8494 15.0071 22.8363 15.0005 22.8232C14.994 22.797 14.9809 22.7643 14.9612 22.7315C14.9481 22.7119 14.935 22.6857 14.9219 22.666C14.9285 22.666 14.935 22.6529 14.9416 22.6464C14.9481 22.6398 14.9547 22.6267 14.9678 22.6136C14.9809 22.594 14.994 22.5678 15.0071 22.5416C15.0202 22.5154 15.0267 22.4892 15.0267 22.463C15.0267 22.4499 15.0267 22.4368 15.0267 22.4303C15.0267 22.4303 15.0267 22.4172 15.0267 22.4106C15.0267 22.4106 15.0267 22.3975 15.0202 22.391C15.0202 22.3844 15.0071 22.3713 14.994 22.3648C14.9874 22.3648 14.9743 22.3517 14.9612 22.3517C14.935 22.3517 14.9088 22.3517 14.8826 22.3517C14.8499 22.3517 14.8237 22.3517 14.791 22.3648C14.7648 22.3648 14.732 22.3779 14.7058 22.391C14.6665 22.3386 14.6403 22.2993 14.6076 22.2731C14.5814 22.2535 14.5617 22.2338 14.5356 22.2207C14.5225 22.2142 14.5094 22.2076 14.4963 22.2076C14.4832 22.2076 14.4701 22.2076 14.4635 22.2076C14.4439 22.2076 14.4242 22.2076 14.4111 22.2207H14.398" fill="#FFCF01"/>
<path d="M13.18 21.9915C13.18 21.9915 13.1603 22.0111 13.1472 22.0242C13.1341 22.0373 13.1276 22.057 13.121 22.0832C13.1145 22.1028 13.1079 22.1225 13.1079 22.1487C13.1079 22.1814 13.1014 22.2076 13.1014 22.2469C13.1014 22.2731 13.1014 22.2993 13.1014 22.3255C13.0752 22.3386 13.049 22.3517 13.0228 22.3648C13.0097 22.3713 12.9966 22.3844 12.9835 22.391C12.9704 22.4041 12.9507 22.4172 12.9376 22.4237C12.9245 22.4368 12.9049 22.4565 12.8918 22.4761C12.8918 22.4892 12.8852 22.4958 12.8787 22.5089C12.8787 22.522 12.8787 22.535 12.8787 22.5416C12.8787 22.5481 12.8852 22.5612 12.8983 22.5678C12.9049 22.5743 12.9114 22.5874 12.9245 22.594C12.9442 22.6071 12.9638 22.6202 12.99 22.6267C13.0097 22.6333 13.0359 22.6398 13.0621 22.6464C13.0817 22.6464 13.1079 22.6464 13.1276 22.6464V22.666C13.1276 22.666 13.1341 22.6988 13.1407 22.7184C13.1538 22.7577 13.1669 22.797 13.1865 22.8298C13.1996 22.8494 13.2061 22.8625 13.2192 22.8756C13.2323 22.8887 13.2454 22.9018 13.2585 22.9083C13.2716 22.9149 13.2847 22.9214 13.3044 22.9149C13.3175 22.9149 13.3371 22.9083 13.3502 22.8952C13.3633 22.8821 13.3764 22.869 13.3895 22.8494C13.4026 22.8298 13.4092 22.8167 13.4223 22.7905C13.4354 22.7577 13.4485 22.7184 13.4616 22.6791C13.4681 22.6857 13.4812 22.6922 13.4943 22.7053C13.5074 22.7184 13.527 22.725 13.5467 22.7381C13.5663 22.7512 13.586 22.7577 13.6122 22.7643C13.6318 22.7708 13.658 22.7774 13.6777 22.7774C13.6973 22.7774 13.717 22.7774 13.7301 22.7774H13.7432L13.7563 22.7643C13.7563 22.7643 13.7694 22.7512 13.7759 22.7446C13.7759 22.7381 13.7825 22.7315 13.789 22.7184C13.789 22.7053 13.789 22.6988 13.789 22.6857C13.789 22.6726 13.789 22.6595 13.789 22.6464C13.789 22.6333 13.789 22.6202 13.7825 22.6071C13.7759 22.5809 13.7628 22.5481 13.7432 22.5154C13.7301 22.4958 13.717 22.4696 13.7039 22.4499C13.7104 22.4499 13.717 22.4368 13.7235 22.4303C13.7301 22.4237 13.7366 22.4106 13.7497 22.3975C13.7628 22.3779 13.7759 22.3517 13.789 22.3255C13.8021 22.2993 13.8087 22.2731 13.8087 22.2469C13.8087 22.2338 13.8087 22.2207 13.8087 22.2141C13.8087 22.2141 13.8087 22.2011 13.8087 22.1945C13.8087 22.1945 13.8087 22.1814 13.8021 22.1749C13.8021 22.1683 13.789 22.1552 13.7759 22.1487C13.7694 22.1487 13.7563 22.1356 13.7432 22.1356C13.717 22.1356 13.6908 22.1356 13.6646 22.1356C13.6318 22.1356 13.6056 22.1356 13.5729 22.1487C13.5467 22.1487 13.514 22.1618 13.4878 22.1749C13.4485 22.1225 13.4223 22.0832 13.3895 22.057C13.3633 22.0373 13.3437 22.0177 13.3175 22.0046C13.3044 21.998 13.2913 21.9915 13.2782 21.9915C13.2651 21.9915 13.252 21.9915 13.2454 21.9915C13.2258 21.9915 13.2061 21.9915 13.1931 22.0046H13.18" fill="#FFCF01"/>
<path d="M30.764 20.3739C30.7509 20.4787 30.6658 20.5638 30.561 20.5769C30.5348 20.5769 30.5151 20.5638 30.5151 20.5376C30.5151 20.5245 30.5151 20.5114 30.5282 20.5049C30.5872 20.4394 30.633 20.3935 30.705 20.3412C30.7181 20.3281 30.7443 20.3281 30.7574 20.3412C30.764 20.3477 30.7705 20.3608 30.7705 20.3739H30.764Z" fill="#93938F"/>
<path d="M31.1503 20.7276C31.098 20.7996 31.0194 20.8585 30.9277 20.8716C30.908 20.8716 30.8884 20.8651 30.8818 20.8389C30.8818 20.8258 30.8818 20.8192 30.8818 20.8061V20.793C30.9473 20.721 30.9997 20.6883 31.0914 20.6686H31.1045C31.1045 20.6686 31.1438 20.6686 31.1438 20.6948C31.1438 20.7079 31.1438 20.7145 31.1438 20.721L31.1503 20.7276Z" fill="#93938F"/>
<path d="M31.4319 21.1401C31.3665 21.1991 31.2879 21.2318 31.2027 21.2318C31.1765 21.2318 31.1569 21.2122 31.1569 21.1925C31.1569 21.1794 31.1569 21.1663 31.17 21.1598C31.2355 21.1008 31.3141 21.0746 31.4058 21.0746C31.4254 21.0746 31.445 21.0943 31.445 21.1139C31.445 21.127 31.445 21.1336 31.4319 21.1401Z" fill="#93938F"/>
<path d="M31.6415 21.5592C31.5957 21.6378 31.5105 21.6771 31.4254 21.6509C31.4057 21.6509 31.3861 21.6182 31.3926 21.5985C31.3926 21.5854 31.3992 21.5789 31.4123 21.5723C31.4712 21.533 31.5236 21.5134 31.5957 21.5003C31.6153 21.5003 31.6415 21.5068 31.6415 21.5265C31.6415 21.533 31.6415 21.5461 31.6415 21.5592Z" fill="#93938F"/>
<path d="M27.9806 19.8435C28.033 19.9221 28.0592 19.9876 28.0461 20.0792V20.0923C28.0461 20.0923 28.0265 20.1316 28.0003 20.1251C27.9872 20.1251 27.9806 20.1185 27.9741 20.1054C27.9217 20.0334 27.8955 19.9352 27.9086 19.8435C27.9086 19.8238 27.9282 19.8107 27.9479 19.8107C27.961 19.8107 27.9675 19.8173 27.9741 19.8238L27.9806 19.8435Z" fill="#93938F"/>
<path d="M27.4895 20.066C27.5549 20.1119 27.5942 20.1708 27.6008 20.2494C27.6008 20.2756 27.5877 20.2952 27.5615 20.2952C27.5484 20.2952 27.5418 20.2952 27.5287 20.2887C27.4633 20.2428 27.4305 20.1773 27.424 20.0988C27.424 20.0791 27.4371 20.0595 27.4567 20.0529C27.4698 20.0529 27.4764 20.0529 27.4829 20.0595L27.4895 20.066Z" fill="#93938F"/>
<path d="M27.0442 20.3412C27.1031 20.3739 27.162 20.4329 27.2013 20.5114C27.2144 20.5311 27.2013 20.5573 27.1817 20.5704C27.1686 20.5704 27.1555 20.5704 27.1489 20.5704C27.0704 20.5376 27.0049 20.4787 26.9852 20.3739C26.9852 20.3543 26.9918 20.3346 27.0114 20.3346C27.018 20.3346 27.0311 20.3346 27.0376 20.3346H27.0507L27.0442 20.3412Z" fill="#93938F"/>
<path d="M26.6578 20.6097C26.7232 20.662 26.7625 20.7013 26.8084 20.7668C26.8215 20.7865 26.8215 20.8127 26.8018 20.8258C26.7953 20.8323 26.7756 20.8323 26.7691 20.8323C26.6774 20.8127 26.6054 20.7341 26.5988 20.6424C26.5988 20.6228 26.6119 20.6031 26.6316 20.5966C26.6447 20.5966 26.6512 20.5966 26.6643 20.6031L26.6578 20.6097Z" fill="#93938F"/>
<g style="mix-blend-mode:multiply" opacity="0.9">
<path d="M35.9049 20.446C35.6037 21.926 35.0143 23.2358 34.4969 24.6242C34.4969 24.6242 33.8944 26.2418 29.3625 26.137H18.7597C9.49949 26.6544 9.24408 24.6242 9.24408 24.6242C8.82495 23.6942 8.15695 21.6706 7.78366 20.1709C7.78366 20.1709 16.6968 23.2555 35.4203 20.518" fill="#ADF2ED"/>
</g>
<path d="M11.0582 37.6173C9.80075 35.9473 9.1786 29.4638 9.1786 29.4638C8.48441 24.0282 13.3634 23.3274 13.3634 23.3274C16.3825 22.869 19.1461 22.7118 21.5692 22.7184C23.9924 22.7118 26.7495 22.869 29.7751 23.3274C29.7751 23.3274 34.6541 24.0216 33.9599 29.4638C33.9599 29.4638 33.3312 35.9473 32.0803 37.6173" fill="#FFF200"/>
<g style="mix-blend-mode:multiply" opacity="0.59">
<path d="M9.8531 25.5933C11.0712 23.6483 13.3568 23.3208 13.3568 23.3208C16.3759 22.8624 19.1395 22.7052 21.5626 22.7118C23.9858 22.7052 26.7429 22.8624 29.7685 23.3208C29.7685 23.3208 32.0476 23.6483 33.2722 25.5933H9.8531Z" fill="#FFAD00"/>
</g>
<path d="M13.92 37.6173C13.0097 36.3992 12.5513 31.684 12.5513 31.684C12.047 27.7284 15.59 27.2241 15.59 27.2241C17.7839 26.8901 19.7944 26.7722 21.5561 26.7788C23.3178 26.7722 25.3283 26.8901 27.5222 27.2241C27.5222 27.2241 31.0718 27.7284 30.5609 31.684C30.5609 31.684 30.1025 36.3992 29.1922 37.6173" fill="#FFCF01"/>
<path d="M12.8656 28.416H30.4693" stroke="#333E48" stroke-width="0.217538" stroke-linecap="round" stroke-linejoin="round"/>
<path d="M12.0863 29.7192H31.1176" stroke="#333E48" stroke-width="0.217538" stroke-linecap="round" stroke-linejoin="round"/>
<path d="M11.916 31.1272H31.2944" stroke="#333E48" stroke-width="0.217538" stroke-linecap="round" stroke-linejoin="round"/>
<path d="M12.0863 32.5156H31.1176" stroke="#333E48" stroke-width="0.217538" stroke-linecap="round" stroke-linejoin="round"/>
<path d="M12.25 33.76H30.9539" stroke="#333E48" stroke-width="0.217538" stroke-linecap="round" stroke-linejoin="round"/>
<path d="M12.525 35.1548H30.6788" stroke="#333E48" stroke-width="0.217538" stroke-linecap="round" stroke-linejoin="round"/>
<path d="M12.8656 36.4253H30.3383" stroke="#333E48" stroke-width="0.217538" stroke-linecap="round" stroke-linejoin="round"/>
<g style="mix-blend-mode:soft-light">
<g style="mix-blend-mode:soft-light">
<path d="M21.4448 8.51367L10.0888 25.3904C9.28331 25.004 9.23747 24.6241 9.23747 24.6241C9.19163 24.5128 9.14578 24.4015 9.10649 24.2967L21.3072 8.51367C21.3531 8.50712 21.3989 8.50712 21.4448 8.51367Z" fill="#F9F9F9"/>
</g>
<g style="mix-blend-mode:soft-light">
<path d="M32.65 9.46326L21.9162 23.3667L31.4188 9.22095C31.851 9.29299 32.2636 9.37812 32.65 9.46326Z" fill="#F9F9F9"/>
</g>
<g style="mix-blend-mode:soft-light">
<path d="M30.168 9.02444L18.5698 26.15C14.9875 26.3399 12.7805 26.1434 11.4248 25.8356L23.1606 8.52017C23.7893 8.52672 24.4114 8.54637 25.0336 8.57911L19.9319 16.1628L26.3892 8.65115C27.7187 8.73629 28.9957 8.86072 30.168 9.02444Z" fill="#F9F9F9"/>
</g>
</g>
</svg>
