<svg width="45" height="42" viewBox="0 0 45 42" fill="none" xmlns="http://www.w3.org/2000/svg">
<path d="M16.6341 11.0917C14.7628 11.5841 13.0064 12.5636 11.9284 14.1887C11.6713 14.5772 11.5345 14.993 11.3101 15.3925C10.9545 16.0217 10.5933 16.651 10.2322 17.2802C10.1009 17.51 9.96406 17.7672 10.0078 18.0299C10.0516 18.2925 10.3854 18.5059 10.5933 18.3418C10.3635 18.7029 10.2048 19.1078 10.1173 19.5237C10.0844 19.6878 10.068 19.8684 10.161 20.0052C10.3416 20.2514 10.7246 20.1474 11.0037 20.0161C10.9326 20.3006 10.8669 20.5852 10.8778 20.8752C10.8888 21.1652 10.9928 21.4661 11.2116 21.6522C11.436 21.8382 11.7862 21.882 12.016 21.7014C12.1035 22.2212 12.492 22.6809 12.9899 22.8505C13.3237 22.9654 13.7122 22.949 14.0296 23.1186C14.3798 23.3046 14.7026 23.5399 15.0747 23.7041C15.5781 23.9284 16.1034 24.1035 16.6341 24.2458V11.0917Z" fill="#DDE3E7"/>
<path d="M30.3518 17.3569C30.4776 17.2639 30.4284 17.0669 30.3627 16.9301C29.9797 16.1094 29.3778 15.5129 28.9072 14.7688C28.4695 14.0739 28.0755 13.4501 27.4408 12.8974C26.6583 12.2135 25.7391 11.7155 24.7542 11.3599V23.8628C25.3068 23.644 25.8376 23.3813 26.3464 23.0804C26.6583 22.8943 26.9702 22.6809 27.3313 22.6645C27.4298 22.6645 27.5338 22.67 27.6323 22.6645C27.8731 22.6372 28.0536 22.4894 28.1904 22.3034C28.2397 22.2323 28.4804 21.5702 28.5078 21.5702C28.7321 21.5592 28.9072 21.8164 29.1316 21.7781C29.3121 21.7453 29.3997 21.5373 29.4434 21.3568C29.5857 20.7713 29.6459 20.1694 29.6295 19.562C29.7335 19.7809 30.0946 19.7426 30.2369 19.5456C30.3791 19.3486 30.3682 19.0805 30.3353 18.8398C30.2697 18.3145 30.1438 17.7837 29.8757 17.3296C30.0399 17.346 30.2259 17.4718 30.3572 17.3733L30.3518 17.3569Z" fill="#DDE3E7"/>
<path d="M39.1341 38.9102C39.1341 37.5696 37.1916 36.4807 34.8005 36.4807C33.7006 36.4807 32.6938 36.7105 31.9278 37.0881C31.6433 37.0224 31.3587 36.9622 31.0742 36.9184C29.4381 36.6667 27.7857 36.6558 26.1332 36.7543C25.3015 36.0211 23.4411 35.5122 21.2797 35.5122C19.1184 35.5122 17.3182 36.0047 16.4646 36.7215C15.0365 36.6667 13.6083 36.6996 12.1966 36.9184C11.5345 37.0224 10.8834 37.1866 10.2432 37.4054C9.54282 37.0607 8.6947 36.8583 7.78092 36.8583C5.53202 36.8583 3.68257 38.0839 3.41992 39.6707H20.3824C20.6724 39.6926 20.9679 39.7036 21.2743 39.7036C21.5807 39.7036 21.8762 39.6926 22.1662 39.6707H38.8988C39.0411 39.43 39.1232 39.1728 39.1232 38.9047L39.1341 38.9102Z" fill="#69BE5A"/>
<path d="M21.7503 41.6788C33.7626 41.6788 43.5005 40.9365 43.5005 40.0209C43.5005 39.1052 33.7626 38.3629 21.7503 38.3629C9.73792 38.3629 0 39.1052 0 40.0209C0 40.9365 9.73792 41.6788 21.7503 41.6788Z" fill="#A1CE58"/>
<path d="M11.786 32.3439C11.7422 36.2617 14.9596 39.4134 20.2453 39.4134C28.5952 39.4134 30.8167 34.3137 29.706 31.4848C28.048 27.2716 25.3231 24.3934 26.3408 21.28C27.1835 18.7083 14.6094 18.5222 15.5669 20.9408C17.0936 24.8038 11.8352 27.5835 11.786 32.3384V32.3439Z" fill="#DDE3E7"/>
<path d="M12.2784 28.6014C10.823 28.1636 9.23067 29.1704 8.72179 30.8612C8.21292 32.5465 8.97897 34.2701 10.4345 34.7133C11.8899 35.1511 13.4822 34.1443 13.9911 32.4535C14.5 30.7682 13.7339 29.0446 12.2784 28.6014Z" fill="#DDE3E7"/>
<path d="M16.9078 29.329C16.8968 32.1907 17.351 35.14 18.3906 37.8212C18.5548 38.2425 18.8667 38.5982 18.9706 39.0359V39.0687L18.8995 39.1016C18.7408 39.118 18.5821 39.1617 18.4399 39.2438C18.3469 39.2985 18.2484 39.4025 18.2976 39.4955C18.3359 39.5667 18.4289 39.5831 18.511 39.5831C19.1786 39.605 20.5574 39.7855 20.5848 38.817C20.6724 35.5942 20.5848 31.6381 20.645 29.3235" fill="#DDE3E7"/>
<path d="M16.7819 29.329V29.4275C16.7819 32.2728 17.236 35.2002 18.2757 37.8594C18.4507 38.3027 18.7572 38.6583 18.8502 39.0578L18.9706 39.0304H18.8502V39.0742H18.976L18.9213 38.9593L18.8502 38.9921L18.9049 39.1015L18.894 38.9812C18.7134 38.9976 18.5383 39.0523 18.3851 39.1398C18.3358 39.1672 18.2866 39.2055 18.2483 39.2547C18.21 39.304 18.1717 39.3642 18.1717 39.4462L18.199 39.5557L18.3085 39.4955L18.199 39.5502C18.2373 39.6268 18.303 39.6651 18.3632 39.6815C18.4234 39.698 18.4781 39.7034 18.5219 39.7089C18.7189 39.7144 18.987 39.7363 19.2606 39.7363C19.5889 39.7363 19.9281 39.7089 20.2127 39.583C20.3549 39.5174 20.4808 39.4298 20.5738 39.304C20.6668 39.1781 20.7215 39.014 20.727 38.8279C20.7653 37.5147 20.7708 36.0756 20.7708 34.6803C20.7708 33.7283 20.7708 32.7926 20.7708 31.9281C20.7708 30.9486 20.7708 30.0567 20.7927 29.3344C20.7927 29.2688 20.7434 29.2086 20.6723 29.2086C20.6066 29.2086 20.5464 29.2578 20.5464 29.329C20.5245 30.0567 20.5245 30.9486 20.5245 31.9281C20.5245 32.7926 20.5245 33.7283 20.5245 34.6803C20.5245 36.0756 20.5191 37.5092 20.4808 38.8225C20.4808 38.9702 20.437 39.0796 20.3768 39.1617C20.2838 39.2876 20.1306 39.3751 19.9336 39.4244C19.7366 39.4736 19.5013 39.49 19.266 39.49C18.9979 39.49 18.7353 39.4681 18.5328 39.4627L18.4398 39.4517L18.4179 39.4408C18.4179 39.4408 18.4672 39.3696 18.5055 39.3478C18.6313 39.2766 18.7736 39.2329 18.9158 39.2219L18.9596 39.211L19.0308 39.1781C19.0745 39.1562 19.1019 39.1125 19.0964 39.0632V39.0085C18.976 38.5325 18.6587 38.1713 18.5109 37.7774C17.4877 35.1509 17.0336 32.2509 17.0336 29.4329V29.3344C17.0336 29.2688 16.9788 29.2141 16.9132 29.2141C16.8475 29.2141 16.7928 29.2688 16.7928 29.3344L16.7819 29.329Z" fill="#C4CCD2"/>
<path d="M24.9512 29.329C24.9622 32.1907 24.508 35.14 23.4684 37.8212C23.3042 38.2425 22.9924 38.5982 22.8884 39.0359V39.0687L22.9595 39.1016C23.1182 39.118 23.2769 39.1617 23.4191 39.2438C23.5122 39.2985 23.6107 39.4025 23.5614 39.4955C23.5231 39.5667 23.4301 39.5831 23.3425 39.5831C22.675 39.605 21.2961 39.7855 21.2687 38.817C21.1812 35.5942 21.2687 31.6381 21.2086 29.3235" fill="#DDE3E7"/>
<path d="M24.8308 29.3291V29.4276C24.8308 32.2455 24.3766 35.1455 23.3534 37.772C23.2057 38.166 22.8883 38.5271 22.7734 39.0031V39.0579C22.7679 39.1071 22.7898 39.1509 22.8336 39.1728L22.9047 39.2056L22.9485 39.2165C23.0908 39.2275 23.233 39.2713 23.3589 39.3424L23.43 39.4026L23.4464 39.4299V39.4409L23.5559 39.4956L23.4464 39.4409L23.4246 39.4518L23.3315 39.4628C23.1291 39.4682 22.8664 39.4901 22.5983 39.4901C22.2864 39.4901 21.9691 39.4573 21.7447 39.3588C21.6353 39.3096 21.5477 39.2439 21.4821 39.1563C21.4219 39.0688 21.3836 38.9648 21.3781 38.8171C21.3453 37.5039 21.3343 36.0703 21.3343 34.675C21.3343 33.7229 21.3343 32.7872 21.3343 31.9227C21.3343 30.9432 21.3343 30.0513 21.3125 29.3236C21.3125 29.2579 21.2523 29.2032 21.1866 29.2032C21.1209 29.2032 21.0662 29.2634 21.0662 29.3291C21.0826 30.0568 21.0881 30.9432 21.0881 31.9227C21.0881 32.7872 21.0881 33.7229 21.0881 34.675C21.0881 36.0703 21.0936 37.5039 21.1319 38.8226C21.1319 39.0141 21.1921 39.1728 21.2796 39.2986C21.4164 39.4901 21.6298 39.5941 21.8596 39.6543C22.0894 39.7145 22.3466 39.7309 22.5874 39.7309C22.8664 39.7309 23.1345 39.709 23.3261 39.7035C23.3698 39.7035 23.4246 39.6981 23.4847 39.6762C23.5395 39.6598 23.6106 39.616 23.6489 39.5448L23.6763 39.4354C23.6763 39.3533 23.638 39.2931 23.5996 39.2439C23.5613 39.1947 23.5121 39.1564 23.4629 39.129C23.3042 39.0414 23.1345 38.9867 22.954 38.9703L22.943 39.0907L22.9978 38.9813L22.9266 38.9484L22.8719 39.0579H22.9923V39.0305H22.8719L22.9923 39.0524C23.0798 38.653 23.3862 38.2973 23.5668 37.8541C24.601 35.1893 25.0551 32.2674 25.0606 29.4221V29.3236C25.0606 29.2579 25.0059 29.2032 24.9402 29.2032C24.8746 29.2032 24.8199 29.2579 24.8199 29.3236L24.8308 29.3291Z" fill="#C4CCD2"/>
<path d="M25.1317 23.4743C23.5339 24.1254 21.8103 24.4537 20.0867 24.4537C19.0143 24.4537 17.9473 24.3279 16.9076 24.0707C16.842 24.0543 16.7763 24.0926 16.7599 24.1582C16.7435 24.2239 16.7818 24.2896 16.8474 24.306C17.9035 24.5686 18.9924 24.6945 20.0813 24.6945C21.8377 24.6945 23.5941 24.3607 25.2192 23.6986C25.2794 23.6712 25.3123 23.6001 25.2849 23.5399C25.2575 23.4797 25.1864 23.4469 25.1262 23.4743H25.1317Z" fill="#C4CCD2"/>
<path d="M26.7952 10.7525C26.1222 12.8317 24.5518 14.6101 23.5231 16.1257C22.6476 17.4061 21.9801 18.3473 21.5368 18.2214C20.5683 17.9478 22.0238 14.6757 22.1552 10.6485C22.3029 6.32034 25.668 0.274045 26.4888 0.503859C27.3479 0.744616 28.3164 6.06864 26.8007 10.7525H26.7952Z" fill="#DDE3E7"/>
<path d="M25.69 10.1176C24.7106 13.6031 22.6532 17.3568 21.8871 17.1379C21.1211 16.9245 22.3741 13.9643 22.593 10.3748C22.8283 6.51722 25.8213 1.20961 26.2974 1.3464C26.7734 1.4832 26.6749 6.63212 25.69 10.1176Z" fill="#F488BC"/>
<path d="M13.7725 10.4953C14.4345 12.5745 16.0815 14.2872 17.1102 15.8083C17.9748 17.0942 18.6423 18.0353 19.0855 17.915C20.054 17.6469 18.6204 14.3693 18.5055 10.3366C18.3852 6.00842 14.9544 -0.218446 14.1336 0.00589582C13.2745 0.241182 12.2841 5.80049 13.7725 10.4953Z" fill="#DDE3E7"/>
<path d="M14.9706 9.7893C15.9336 13.2803 17.9691 17.0449 18.7352 16.8315C19.5012 16.6181 18.2646 13.6578 18.0676 10.0629C17.8542 6.19983 14.7955 0.717124 14.314 0.848446C13.838 0.979768 14.0076 6.29832 14.9706 9.7893Z" fill="#F488BC"/>
<path d="M10.8777 18.8616C10.8777 21.4333 14.3687 24.0817 20.2946 24.0817C26.2205 24.0817 29.7115 21.4333 29.7115 18.8616C29.7115 16.2899 26.215 9.48846 20.2946 9.48846C14.3741 9.48846 10.8777 16.2899 10.8777 18.8616Z" fill="#DDE3E7"/>
<path d="M20.1799 20.4483C20.169 20.6453 20.1252 20.8478 20.0048 20.9791C19.9118 21.083 19.7695 21.1378 19.6273 21.1378C19.5397 21.1378 19.4467 21.1159 19.3701 21.0721C19.1895 20.9736 19.0691 20.7547 19.0746 20.5468V20.4812L19.0199 20.4045L18.9433 20.4647V20.5468C18.9433 20.8095 19.0746 21.0666 19.3099 21.198C19.4084 21.2527 19.5233 21.28 19.6327 21.28C19.8133 21.28 19.9884 21.2144 20.1143 21.0776C20.2729 20.9025 20.3112 20.6727 20.3277 20.4593C20.3277 20.421 20.3003 20.3881 20.262 20.3827C20.2237 20.3827 20.1909 20.41 20.1854 20.4483H20.1799Z" fill="#211F1F"/>
<path d="M20.1961 20.4155C20.229 20.6289 20.2727 20.8697 20.4424 21.0393C20.5846 21.1816 20.7543 21.2472 20.9184 21.2472C21.285 21.2472 21.6024 20.9244 21.6024 20.4867V20.4046C21.5969 20.3663 21.5641 20.3389 21.5258 20.3389C21.4875 20.3389 21.4601 20.3772 21.4601 20.4155V20.4867C21.4601 20.8533 21.1975 21.105 20.9184 21.105C20.7926 21.105 20.6612 21.0557 20.5409 20.9353C20.4095 20.8095 20.3658 20.6016 20.3329 20.3882L20.2509 20.328L20.1907 20.41L20.1961 20.4155Z" fill="#211F1F"/>
<path d="M20.9021 19.6002C21.4493 19.6713 20.5629 20.4374 20.3167 20.4428C20.1963 20.4428 20.0868 20.3827 19.9774 20.3279C19.66 20.1638 19.2497 19.8191 19.6655 19.644C19.9884 19.5126 20.5684 19.5509 20.9021 19.5947V19.6002Z" fill="#F488BC"/>
<path opacity="0.1" d="M20.426 17.4006C20.3494 18.4786 19.4028 19.2829 18.3139 19.2063C17.225 19.1242 16.3988 18.1886 16.4754 17.1161" stroke="#211F1F" stroke-width="0.61" stroke-linecap="round" stroke-linejoin="round"/>
<path opacity="0.1" d="M24.2507 17.4006C24.1741 18.4786 23.2275 19.2829 22.1386 19.2063C21.0497 19.1242 20.2235 18.1886 20.3001 17.1161" stroke="#211F1F" stroke-width="0.61" stroke-linecap="round" stroke-linejoin="round"/>
<path d="M22.4068 14.9439C21.5203 14.9439 20.7707 15.5184 20.4916 16.3228C20.2126 15.5184 19.463 14.9439 18.5765 14.9439C17.4548 14.9439 16.5465 15.8686 16.5465 17.0067C16.5465 18.1449 17.4548 19.0696 18.5765 19.0696C19.463 19.0696 20.2126 18.4951 20.4916 17.6907C20.7707 18.4951 21.5203 19.0696 22.4068 19.0696C23.5285 19.0696 24.4368 18.1449 24.4368 17.0067C24.4368 15.8686 23.5285 14.9439 22.4068 14.9439Z" fill="white"/>
<path d="M22.467 18.4733C23.1016 18.4733 23.6161 17.949 23.6161 17.3023C23.6161 16.6556 23.1016 16.1313 22.467 16.1313C21.8324 16.1313 21.3179 16.6556 21.3179 17.3023C21.3179 17.949 21.8324 18.4733 22.467 18.4733Z" fill="#2899D5"/>
<path d="M22.5108 17.6906C22.7646 17.6906 22.9704 17.4824 22.9704 17.2255C22.9704 16.9686 22.7646 16.7604 22.5108 16.7604C22.2569 16.7604 22.0511 16.9686 22.0511 17.2255C22.0511 17.4824 22.2569 17.6906 22.5108 17.6906Z" fill="#211F1F"/>
<path d="M17.5478 17.4444C17.6989 17.4444 17.8213 17.3219 17.8213 17.1708C17.8213 17.0197 17.6989 16.8972 17.5478 16.8972C17.3967 16.8972 17.2742 17.0197 17.2742 17.1708C17.2742 17.3219 17.3967 17.4444 17.5478 17.4444Z" fill="#FDF9E7"/>
<path d="M23.6324 18.2871C23.9013 18.2871 24.1194 18.0666 24.1194 17.7946C24.1194 17.5226 23.9013 17.3022 23.6324 17.3022C23.3634 17.3022 23.1454 17.5226 23.1454 17.7946C23.1454 18.0666 23.3634 18.2871 23.6324 18.2871Z" fill="#FDF9E7"/>
<path d="M18.6423 18.4733C19.2769 18.4733 19.7914 17.949 19.7914 17.3023C19.7914 16.6556 19.2769 16.1313 18.6423 16.1313C18.0077 16.1313 17.4932 16.6556 17.4932 17.3023C17.4932 17.949 18.0077 18.4733 18.6423 18.4733Z" fill="#2899D5"/>
<path d="M18.6587 17.6359C18.9125 17.6359 19.1183 17.4277 19.1183 17.1708C19.1183 16.914 18.9125 16.7057 18.6587 16.7057C18.4048 16.7057 18.199 16.914 18.199 17.1708C18.199 17.4277 18.4048 17.6359 18.6587 17.6359Z" fill="#211F1F"/>
<path d="M19.5397 18.287C19.8086 18.287 20.0266 18.0665 20.0266 17.7946C20.0266 17.5226 19.8086 17.3021 19.5397 17.3021C19.2707 17.3021 19.0527 17.5226 19.0527 17.7946C19.0527 18.0665 19.2707 18.287 19.5397 18.287Z" fill="#FDF9E7"/>
<path d="M15.1623 21.0503C15.6972 21.0503 16.1308 20.6166 16.1308 20.0818C16.1308 19.5469 15.6972 19.1133 15.1623 19.1133C14.6274 19.1133 14.1938 19.5469 14.1938 20.0818C14.1938 20.6166 14.6274 21.0503 15.1623 21.0503Z" fill="#F6BEC3"/>
<path d="M25.5859 21.0503C26.1208 21.0503 26.5544 20.6166 26.5544 20.0818C26.5544 19.5469 26.1208 19.1133 25.5859 19.1133C25.051 19.1133 24.6174 19.5469 24.6174 20.0818C24.6174 20.6166 25.051 21.0503 25.5859 21.0503Z" fill="#F6BEC3"/>
<path d="M38.2585 39.0031C38.3078 38.932 38.2804 38.828 38.2038 38.6967C38.2312 38.7131 38.2585 38.724 38.2914 38.7405C39.1395 39.129 39.9274 39.2439 40.0478 38.9976C40.108 38.8773 39.9931 38.6857 39.7523 38.4778H39.7852C41.2461 38.5106 42.4335 38.1933 42.4444 37.772C42.4554 37.3506 41.2789 36.9895 39.818 36.9567H39.7852C40.0314 36.7597 40.1572 36.5736 40.1025 36.4533C39.9931 36.207 39.1997 36.2891 38.3351 36.6393C38.3078 36.6502 38.2749 36.6667 38.2476 36.6776C38.3351 36.5518 38.3625 36.4423 38.3187 36.3712C38.1929 36.1687 37.5253 36.3384 36.8304 36.7433C36.4911 36.9403 36.2066 37.1591 36.0206 37.3561C35.9221 37.3561 35.851 37.378 35.8127 37.4327C35.7798 37.482 35.7798 37.5531 35.8127 37.6352C35.7743 37.7172 35.7689 37.7884 35.8017 37.8376C35.8345 37.8923 35.9057 37.9142 36.0042 37.9197C36.1793 38.1222 36.4529 38.352 36.7866 38.5654C37.4651 38.9976 38.1217 39.1946 38.2585 38.9976" fill="#009247"/>
<path d="M37.0273 34.1715C37.093 34.2208 37.1039 34.3302 37.0711 34.4779C37.093 34.456 37.1149 34.4341 37.1422 34.4123C37.8262 33.7775 38.5375 33.4273 38.729 33.6189C38.8221 33.7173 38.7728 33.9307 38.6087 34.2043L38.6415 34.1934C40.0204 33.7064 41.2461 33.6353 41.3883 34.0347C41.5251 34.4287 40.5238 35.1455 39.1504 35.627L39.1175 35.6379C39.413 35.7474 39.5881 35.8842 39.5772 36.021C39.5498 36.2891 38.7728 36.4587 37.8426 36.3985C37.8098 36.3985 37.777 36.3985 37.7496 36.393C37.87 36.4861 37.9302 36.5791 37.9083 36.6612C37.8481 36.891 37.1641 36.9402 36.3762 36.7706C35.9932 36.6885 35.6539 36.5681 35.4186 36.4423C35.3256 36.4751 35.249 36.4751 35.1998 36.4368C35.1505 36.3985 35.1341 36.3329 35.1396 36.2398C35.0794 36.1742 35.052 36.1085 35.063 36.0483C35.0794 35.9881 35.1396 35.9389 35.2326 35.9061C35.3366 35.6598 35.5281 35.3534 35.7743 35.047C36.2832 34.4232 36.8468 34.0347 37.0383 34.177" fill="#009247"/>
<path d="M39.2053 38.1386C39.249 38.0401 39.1943 37.9088 39.063 37.761C39.1013 37.772 39.1396 37.7829 39.1834 37.7938C40.3489 38.0893 41.3721 38.0565 41.4706 37.7227C41.5198 37.5531 41.3283 37.3397 40.9781 37.1318H41.0219C42.8823 36.8308 44.3159 36.1578 44.2338 35.6216C44.1517 35.0853 42.5759 34.8938 40.7155 35.1893C40.6991 35.1893 40.6881 35.1893 40.6717 35.1948C40.9398 34.8883 41.0547 34.6257 40.9562 34.4834C40.7593 34.1934 39.7743 34.4834 38.7566 35.1236C38.7238 35.1455 38.6855 35.1674 38.6526 35.1893C38.7347 35.0087 38.7456 34.8665 38.669 34.7898C38.4611 34.5655 37.6513 34.9266 36.8634 35.5997C36.4749 35.928 36.1684 36.2727 35.9769 36.5627C35.8511 36.5846 35.7635 36.6338 35.7307 36.705C35.6979 36.7761 35.7198 36.8636 35.7799 36.9621C35.7526 37.077 35.7581 37.1646 35.8128 37.2248C35.8675 37.285 35.966 37.3014 36.0918 37.285C36.3654 37.5038 36.7649 37.7337 37.23 37.9252C38.1875 38.3191 39.0685 38.4176 39.1998 38.1386" fill="#35A850"/>
<path d="M36.2285 37.099C35.9932 35.6162 34.4666 34.6258 32.8196 34.883C30.1056 35.5451 27.6488 36.437 25.7008 38.1277C25.4819 38.3466 25.3944 38.5983 25.4272 38.8062C25.4601 39.0142 25.6242 39.2276 25.8978 39.3698C28.2671 40.3766 30.8826 40.4642 33.6677 40.2562C35.3147 39.9936 36.4638 38.5819 36.2285 37.099Z" fill="#F57E25"/>
<path d="M33.8977 36.3932C33.7992 36.4096 33.6953 36.2455 33.657 36.0321C33.6241 35.8187 33.6734 35.6326 33.7719 35.6162C33.8704 35.5998 33.9743 35.764 34.0126 35.9774C34.0455 36.1908 33.9962 36.3768 33.8977 36.3932Z" fill="#F05A28"/>
<path d="M33.4106 38.8609C33.3121 38.8773 33.2082 38.7131 33.1699 38.4997C33.137 38.2863 33.1863 38.1003 33.2848 38.0839C33.3833 38.0674 33.4872 38.2316 33.5255 38.445C33.5584 38.6584 33.5091 38.8444 33.4106 38.8609Z" fill="#F05A28"/>
<path d="M35.0138 37.9034C34.9153 37.9198 34.8114 37.7556 34.7731 37.5422C34.7402 37.3288 34.7895 37.1428 34.888 37.1264C34.9865 37.11 35.0904 37.2741 35.1287 37.4875C35.1616 37.7009 35.1123 37.8869 35.0138 37.9034Z" fill="#F05A28"/>
<path d="M31.8401 37.3453C31.7416 37.3617 31.6376 37.1976 31.5993 36.9842C31.5665 36.7708 31.6157 36.5847 31.7142 36.5683C31.8127 36.5519 31.9167 36.716 31.955 36.9294C31.9878 37.1428 31.9385 37.3289 31.8401 37.3453Z" fill="#F05A28"/>
<path d="M30.6364 39.3042C30.538 39.3206 30.434 39.1564 30.3957 38.943C30.3629 38.7296 30.4121 38.5436 30.5106 38.5272C30.6091 38.5107 30.7131 38.6749 30.7514 38.8883C30.7842 39.1017 30.7349 39.2877 30.6364 39.3042Z" fill="#F05A28"/>
<path d="M29.5915 37.8706C29.493 37.887 29.389 37.7228 29.3507 37.5094C29.3179 37.296 29.3671 37.11 29.4656 37.0936C29.5641 37.0772 29.6681 37.2413 29.7064 37.4547C29.7392 37.6681 29.69 37.8541 29.5915 37.8706Z" fill="#F05A28"/>
<path d="M28.9347 39.2658C28.8362 39.2822 28.7322 39.1181 28.6939 38.9047C28.6611 38.6913 28.7103 38.5052 28.8088 38.4888C28.9073 38.4724 29.0113 38.6366 29.0496 38.85C29.0824 39.0634 29.0332 39.2494 28.9347 39.2658Z" fill="#F05A28"/>
<path d="M28.1195 38.3302C28.021 38.3466 27.9171 38.1825 27.8788 37.9691C27.846 37.7557 27.8952 37.5696 27.9937 37.5532C28.0922 37.5368 28.1961 37.701 28.2344 37.9144C28.2673 38.1278 28.218 38.3138 28.1195 38.3302Z" fill="#F05A28"/>
<path d="M26.8937 38.9813C26.7952 38.9977 26.6913 38.8336 26.653 38.6202C26.6201 38.4068 26.6694 38.2207 26.7679 38.2043C26.8663 38.1879 26.9703 38.3521 27.0086 38.5655C27.0414 38.7789 26.9922 38.9649 26.8937 38.9813Z" fill="#F05A28"/>
</svg>
