<svg width="18" height="22" viewBox="0 0 18 22" fill="none" xmlns="http://www.w3.org/2000/svg">
<path d="M8.96975 7.58197V3.08456C8.96975 2.69579 8.81529 2.32298 8.54038 2.04808C8.26548 1.77318 7.89267 1.61871 7.5039 1.61871C7.11513 1.61871 6.74224 1.77318 6.46734 2.04808C6.19243 2.32298 6.03806 2.69579 6.03806 3.08456V7.58197H8.96975Z" fill="#312858"/>
<path d="M14.5386 15.0411C13.1069 13.4943 13.0155 13.0867 13.0155 12.062V9.83383C13.0155 9.10966 12.8729 8.39259 12.5957 7.72354C12.3186 7.0545 11.9124 6.44656 11.4003 5.9345C10.8883 5.42244 10.2804 5.01632 9.61139 4.73919C8.94234 4.46206 8.22527 4.31937 7.50111 4.31937C6.03859 4.31937 4.63594 4.90034 3.60178 5.9345C2.56762 6.96866 1.98665 8.37131 1.98665 9.83383V12.062C1.98665 13.0839 1.89452 13.4943 0.462857 15.0411C0.164593 15.3642 -0.000751386 15.7881 2.56714e-06 16.2278V16.3018C0.000372633 16.7668 0.185396 17.2126 0.514323 17.5412C0.84325 17.8699 1.28921 18.0545 1.7542 18.0545H13.2472C13.7121 18.0543 14.1578 17.8696 14.4864 17.541C14.8151 17.2123 14.9998 16.7666 15 16.3018V16.2278C15.0011 15.7883 14.8363 15.3644 14.5386 15.0411Z" fill="#312858"/>
<path d="M5.20035 19.0248C5.27394 19.5791 5.54631 20.0877 5.9668 20.4562C6.38729 20.8247 6.92722 21.0279 7.48633 21.0282C8.04548 21.0278 8.58554 20.8245 9.00612 20.4561C9.42669 20.0876 9.69919 19.5791 9.77308 19.0248H5.20035Z" fill="#312858"/>
<circle cx="13" cy="5" r="3.6" fill="#EC5252" stroke="white" stroke-width="1.2"/>
</svg>
