<svg width="31" height="38" viewBox="0 0 31 38" fill="none" xmlns="http://www.w3.org/2000/svg">
<g opacity="0.4">
<path d="M5.61473 12.974C5.73815 10.308 6.91549 7.80026 8.88776 6.00225C10.86 4.20424 13.4657 3.26327 16.1317 3.38629C18.7919 3.55148 21.2779 4.76528 23.0441 6.7613C24.8103 8.75733 25.7125 11.3725 25.5528 14.033L26.9391 13.4341C27.2206 6.90358 22.4597 1.36212 16.2425 1.02576C9.98042 0.687409 4.61563 5.75678 4.25931 12.3482C4.25931 12.3862 4.25931 12.4241 4.25931 12.463L5.61674 13.0429C5.61374 13.0199 5.61373 12.997 5.61473 12.974Z" fill="#BBC7C4"/>
<path d="M25.553 14.1966C25.5195 14.1968 25.4868 14.1867 25.4592 14.1677C25.4364 14.1518 25.418 14.1304 25.4058 14.1054C25.3936 14.0804 25.3879 14.0527 25.3893 14.025C25.5429 11.4085 24.6542 8.83777 22.9176 6.87479C21.1809 4.91182 18.7376 3.7164 16.122 3.54992C14.8307 3.4784 13.5383 3.66663 12.3211 4.10346C11.1038 4.54029 9.9866 5.21684 9.03548 6.09308C7.08422 7.86912 5.91457 10.3448 5.7817 12.98V13.0478C5.78047 13.0742 5.77282 13.0999 5.75943 13.1227C5.74604 13.1455 5.72731 13.1647 5.70485 13.1786C5.68257 13.1926 5.6572 13.201 5.63095 13.2031C5.6047 13.2052 5.57835 13.2009 5.55413 13.1906L4.1967 12.6107C4.16598 12.5977 4.13998 12.5756 4.12214 12.5474C4.1043 12.5192 4.09548 12.4863 4.09689 12.453V12.3362C4.24801 9.15732 5.61942 6.15921 7.92559 3.96612C9.02683 2.90557 10.3342 2.08256 11.7666 1.54808C13.199 1.01361 14.726 0.779066 16.2528 0.859027C22.5208 1.19838 27.3885 6.84064 27.1041 13.4351C27.1027 13.4659 27.0926 13.4957 27.0749 13.521C27.0572 13.5462 27.0327 13.5659 27.0043 13.5778L25.6179 14.1767C25.598 14.1879 25.5758 14.1947 25.553 14.1966ZM15.588 3.20856C15.7717 3.20856 15.9556 3.21356 16.14 3.22354C18.796 3.39255 21.2818 4.58925 23.0705 6.55996C24.8592 8.53068 25.8101 11.1205 25.7217 13.7804L26.7747 13.3253C26.9973 6.95045 22.2833 1.5178 16.2278 1.18942C14.7454 1.11192 13.263 1.33972 11.8723 1.85874C10.4816 2.37776 9.21233 3.17692 8.1432 4.20666C5.89862 6.34235 4.56407 9.26135 4.41729 12.3561L5.4573 12.8003C5.63271 10.1376 6.83336 7.64654 8.80694 5.85053C10.6556 4.14937 13.0767 3.20621 15.589 3.20856H15.588Z" fill="#FFE800"/>
</g>
<path d="M5.61506 13.7084C5.73848 11.0424 6.91583 8.53461 8.8881 6.7366C10.8604 4.93859 13.4661 3.99761 16.1321 4.12064C18.7922 4.28583 21.2782 5.49962 23.0444 7.49565C24.8107 9.49168 25.7129 12.1069 25.5531 14.7674L26.9395 14.1685C27.2209 7.63796 22.46 2.0965 16.2428 1.76014C9.98076 1.42179 4.61597 6.49013 4.25964 13.0826C4.25964 13.1205 4.25964 13.1584 4.25964 13.1973L5.61707 13.7773C5.61408 13.7543 5.61407 13.7324 5.61506 13.7084Z" fill="#FFE800"/>
<path d="M25.5529 14.9311C25.5194 14.9313 25.4866 14.9212 25.4591 14.9022C25.4362 14.8863 25.4178 14.8649 25.4055 14.8399C25.3933 14.8149 25.3877 14.7872 25.3892 14.7594C25.5428 12.143 24.6541 9.57224 22.9174 7.60926C21.1808 5.64629 18.7375 4.45087 16.1218 4.28439C13.5002 4.16755 10.9392 5.09487 9.0002 6.86309C7.06117 8.63132 5.90229 11.0962 5.77755 13.7174V13.7853C5.77635 13.8116 5.76882 13.8372 5.75562 13.86C5.74241 13.8827 5.7239 13.9019 5.70167 13.916C5.67934 13.9299 5.654 13.9383 5.62778 13.9403C5.60156 13.9424 5.57521 13.9382 5.55096 13.928L4.19356 13.3481C4.16284 13.3351 4.1368 13.3131 4.11896 13.2849C4.10113 13.2567 4.09233 13.2238 4.09374 13.1904V13.0737C4.24487 9.89478 5.61628 6.89669 7.92245 4.7036C9.02424 3.64384 10.3317 2.82133 11.764 2.28691C13.1962 1.75249 14.7229 1.51751 16.2496 1.59651C22.5176 1.93587 27.3854 7.57813 27.1009 14.1726C27.0995 14.2034 27.0894 14.2331 27.0717 14.2584C27.0541 14.2837 27.0296 14.3034 27.0011 14.3153L25.6148 14.9141C25.5955 14.9238 25.5744 14.9296 25.5529 14.9311ZM15.5949 3.94303C15.7758 3.94303 15.9575 3.94803 16.1398 3.95801C18.7958 4.12726 21.2814 5.32405 23.0701 7.29471C24.8587 9.26537 25.8097 11.855 25.7216 14.5149L26.7746 14.0598C26.9971 7.68492 22.2831 2.25127 16.2277 1.92389C14.7452 1.84676 13.2628 2.07485 11.8721 2.59403C10.4815 3.11321 9.21222 3.91241 8.14304 4.94213C5.8987 7.07758 4.56416 9.99617 4.41713 13.0906L5.45715 13.5358C5.62247 10.9518 6.75976 8.52614 8.64042 6.7464C10.5211 4.96666 13.0057 3.96476 15.5949 3.94205V3.94303Z" fill="#FFE800"/>
<g opacity="0.2">
<path d="M5.58143 17.5074C5.61136 17.8063 5.58211 18.1081 5.49538 18.3957C5.40865 18.6832 5.26611 18.9509 5.07592 19.1834C4.88573 19.4158 4.65161 19.6085 4.38693 19.7505C4.12224 19.8924 3.83219 19.9809 3.53333 20.0107C3.23447 20.0407 2.93265 20.0114 2.64509 19.9246C2.35754 19.8379 2.0899 19.6954 1.85744 19.5052C1.62498 19.315 1.43227 19.0809 1.29031 18.8162C1.14836 18.5515 1.05993 18.2615 1.0301 17.9626L0.74265 15.0851C0.712716 14.7862 0.741934 14.4844 0.828668 14.1968C0.915402 13.9093 1.05793 13.6416 1.24813 13.4092C1.43832 13.1767 1.67244 12.984 1.93712 12.8421C2.20181 12.7001 2.49189 12.6117 2.79075 12.5818C3.08961 12.5519 3.3914 12.5812 3.67895 12.6679C3.96651 12.7546 4.23418 12.8971 4.46664 13.0873C4.6991 13.2775 4.89181 13.5116 5.03377 13.7763C5.17572 14.041 5.26414 14.3311 5.29398 14.6299L5.58143 17.5074Z" fill="#231F20"/>
</g>
<path d="M5.96125 16.8434C5.99118 17.1423 5.96196 17.4441 5.87523 17.7317C5.78849 18.0193 5.64596 18.2869 5.45577 18.5193C5.26558 18.7518 5.03146 18.9445 4.76677 19.0865C4.50209 19.2284 4.21204 19.3168 3.91317 19.3467C3.61432 19.3766 3.31249 19.3474 3.02494 19.2607C2.73739 19.1739 2.46971 19.0314 2.23726 18.8412C2.0048 18.651 1.81209 18.4168 1.67013 18.1522C1.52817 17.8875 1.43975 17.5974 1.40991 17.2986L1.12247 14.421C1.09253 14.1222 1.12178 13.8204 1.20852 13.5328C1.29525 13.2453 1.43778 12.9776 1.62797 12.7452C1.81817 12.5127 2.05229 12.32 2.31697 12.1781C2.58165 12.0361 2.87171 11.9477 3.17057 11.9178C3.46942 11.8879 3.77125 11.9171 4.0588 12.0038C4.34635 12.0906 4.614 12.2331 4.84646 12.4233C5.07891 12.6135 5.27162 12.8476 5.41358 13.1123C5.55554 13.377 5.64396 13.6671 5.6738 13.9659L5.96125 16.8434Z" fill="#EB008B"/>
<path d="M3.6846 19.5703C3.06516 19.5689 2.46822 19.338 2.00917 18.9221C1.55012 18.5062 1.26158 17.9349 1.19934 17.3186L0.911895 14.441C0.878381 14.1144 0.909974 13.7843 1.00489 13.4699C1.0998 13.1555 1.25614 12.8631 1.46483 12.6095C1.672 12.3547 1.92771 12.1436 2.21709 11.9884C2.50647 11.8332 2.82376 11.7369 3.15061 11.7052C3.4773 11.6717 3.8074 11.7033 4.12179 11.7982C4.43617 11.8931 4.72862 12.0495 4.98215 12.2582C5.23688 12.4656 5.44794 12.7215 5.60316 13.011C5.75837 13.3006 5.85463 13.618 5.8864 13.945L6.17388 16.8225C6.2391 17.4821 6.04002 18.1407 5.62034 18.6538C5.20065 19.1668 4.5946 19.4925 3.93513 19.5593C3.85062 19.5666 3.76711 19.5703 3.6846 19.5703ZM3.40215 12.1195C3.33228 12.1195 3.26242 12.1195 3.19155 12.1295C2.92066 12.1559 2.65766 12.2357 2.41782 12.3643C2.17797 12.493 1.96603 12.6679 1.79422 12.879C1.62123 13.0894 1.49165 13.3319 1.41302 13.5927C1.33438 13.8534 1.30823 14.1272 1.33607 14.3981L1.62352 17.2756C1.65014 17.5466 1.73018 17.8096 1.859 18.0494C1.98783 18.2892 2.16291 18.5012 2.37411 18.673C2.58455 18.8458 2.82714 18.9753 3.08787 19.0539C3.34859 19.1325 3.6223 19.1588 3.89322 19.1311C4.44017 19.0756 4.9428 18.8056 5.29098 18.3801C5.63915 17.9547 5.80447 17.4085 5.75067 16.8614L5.46323 13.9839C5.4366 13.713 5.35657 13.45 5.22774 13.2102C5.09892 12.9703 4.92384 12.7583 4.71264 12.5865C4.34378 12.2821 3.88044 12.1155 3.40215 12.1155V12.1195Z" fill="#EB008B"/>
<path d="M4.86535 16.5531C4.87801 16.7173 4.85811 16.8824 4.80683 17.0389C4.75556 17.1954 4.67391 17.3403 4.56654 17.4652C4.45916 17.5901 4.32819 17.6926 4.18113 17.7668C4.03407 17.8409 3.87379 17.8854 3.70953 17.8975C3.54547 17.9097 3.38061 17.8895 3.22437 17.838C3.06813 17.7865 2.92359 17.7046 2.799 17.5972C2.67441 17.4897 2.57221 17.3588 2.49827 17.2119C2.42433 17.0649 2.38009 16.9048 2.36809 16.7407L2.21838 14.7136C2.20613 14.5495 2.22634 14.3846 2.27787 14.2284C2.32939 14.0722 2.41124 13.9276 2.51868 13.803C2.62612 13.6784 2.75706 13.5762 2.90402 13.5023C3.05099 13.4284 3.21109 13.3841 3.37517 13.3721C3.70645 13.3477 4.03389 13.4558 4.28546 13.6727C4.53702 13.8896 4.6921 14.1976 4.71661 14.5289L4.86535 16.5531Z" fill="#EE62A3"/>
<path d="M16.2419 6.22665C15.7535 6.26507 15.2683 6.33676 14.7897 6.44124C7.53449 8.0891 3.56103 17.8196 5.91455 28.1838C8.26806 38.5481 16.0572 45.6056 23.3124 43.9538C24.0493 43.7862 24.764 43.5322 25.4414 43.1972L26.3077 42.6423C27.8548 41.8095 29.0899 40.4973 29.8278 38.9028C30.5657 37.3083 30.7664 35.5175 30.3999 33.7992C30.1658 32.7645 29.7218 31.7888 29.0954 30.9326C27.8268 29.1602 26.8497 27.1965 26.2009 25.1157C25.5004 23.0354 25.1644 20.8497 25.2078 18.655C25.3216 15.7335 26.2179 13.0816 24.7088 10.3708C24.0078 9.15372 23.0069 8.13645 21.8013 7.41591C20.5958 6.69537 19.2258 6.29558 17.8219 6.25461C17.8219 6.25461 16.5124 6.20369 16.2419 6.22665Z" fill="#638C1C"/>
<path d="M15.2566 5.66888C14.7682 5.70733 14.283 5.77905 13.8043 5.8835C6.54914 7.53136 2.57571 17.2618 4.92923 27.6261C7.28275 37.9903 15.0719 45.0489 22.3271 43.3961C23.064 43.2287 23.7785 42.9751 24.4561 42.6405L25.3224 42.0855C26.8694 41.2529 28.1045 39.941 28.8424 38.3466C29.5802 36.7523 29.7811 34.9616 29.4146 33.2434C29.1806 32.2088 28.737 31.2332 28.1111 30.3769C26.8425 28.6045 25.8653 26.6408 25.2166 24.5599C24.5162 22.4796 24.1803 20.2939 24.2235 18.0992C24.3373 15.1778 25.2346 12.5258 23.7245 9.81501C23.0237 8.59771 22.0228 7.58018 20.8172 6.85946C19.6116 6.13873 18.2415 5.73883 16.8376 5.69785C16.8376 5.69785 15.5271 5.64493 15.2566 5.66888Z" fill="#7CC042"/>
<g opacity="0.1">
<path d="M28.2138 30.2488C29.0581 29.65 29.2757 32.0454 29.5183 33.1154C29.8845 34.8336 29.6837 36.6242 28.9458 38.2185C28.208 39.8128 26.9729 41.1248 25.4261 41.9576L24.5597 42.5125C23.8822 42.8471 23.1676 43.1007 22.4308 43.2681C16.6418 44.5826 10.5165 40.3546 7.07901 33.331C7.082 33.332 18.127 37.4132 28.2138 30.2488Z" fill="#C0DF88"/>
</g>
<g opacity="0.1">
<path d="M29.3755 33.0606C29.1506 32.0383 28.7219 31.0718 28.1149 30.219C26.8864 28.456 25.9433 26.5105 25.3202 24.454C24.6424 22.3889 24.3178 20.2243 24.36 18.0512C24.4698 15.1567 25.3372 12.5277 23.879 9.84081C23.2163 8.6442 22.2552 7.63953 21.0891 6.92452C19.923 6.20951 18.5916 5.80852 17.2246 5.7606C17.2246 5.7606 15.9491 5.7057 15.6866 5.72965C15.5867 5.73864 15.4939 5.75261 15.3971 5.76359C16.7572 5.81762 18.0804 6.22118 19.2391 6.93533C20.3978 7.64949 21.353 8.65013 22.0125 9.84081C23.4697 12.5277 22.6034 15.1557 22.4936 18.0512C22.4514 20.2243 22.776 22.3889 23.4538 24.454C24.0771 26.5104 25.0202 28.4559 26.2484 30.219C26.8556 31.0717 27.2844 32.0382 27.509 33.0606C27.8693 34.7523 27.6798 36.5148 26.9681 38.0912C26.2564 39.6675 25.0597 40.9754 23.5526 41.8239L22.7152 42.3739C22.0616 42.7052 21.3707 42.9569 20.6571 43.1234C20.2841 43.2084 19.906 43.2698 19.5253 43.3071C20.5267 43.4111 21.5384 43.349 22.5195 43.1234C23.2334 42.9569 23.9248 42.7053 24.5786 42.3739L25.416 41.8239C26.9237 40.9758 28.121 39.6682 28.8333 38.0918C29.5455 36.5153 29.7355 34.7526 29.3755 33.0606Z" fill="#5D7261"/>
</g>
<g opacity="0.1">
<path d="M16.5122 35.4831C15.5315 35.4937 14.5776 35.1636 13.8131 34.5493C13.0486 33.935 12.521 33.0744 12.3202 32.1145C12.3116 32.0712 12.3117 32.0267 12.3203 31.9834C12.329 31.9402 12.3461 31.8991 12.3707 31.8625C12.3952 31.8259 12.4268 31.7945 12.4635 31.77C12.5002 31.7456 12.5414 31.7287 12.5847 31.7202C12.672 31.7032 12.7625 31.7214 12.8364 31.771C12.9103 31.8206 12.9616 31.8974 12.9789 31.9847C13.1798 32.9141 13.7408 33.726 14.5391 34.2425C15.3373 34.759 16.3078 34.9381 17.2378 34.7405C18.1729 34.5703 19.0025 34.0367 19.545 33.2562C20.0875 32.4758 20.2987 31.5122 20.1323 30.5764C20.1153 30.4892 20.1336 30.3988 20.1832 30.325C20.2328 30.2513 20.3096 30.2003 20.3968 30.1832C20.4401 30.1745 20.4846 30.1744 20.5279 30.183C20.5712 30.1916 20.6124 30.2087 20.649 30.2333C20.6857 30.2579 20.7171 30.2895 20.7415 30.3263C20.7659 30.363 20.7827 30.4043 20.7911 30.4477C20.992 31.5585 20.7442 32.7036 20.102 33.632C19.4599 34.5604 18.4758 35.1963 17.3656 35.4002C17.0845 35.4552 16.7987 35.483 16.5122 35.4831Z" fill="#231F20"/>
</g>
<g opacity="0.1">
<path d="M10.0743 22.4868C9.96654 22.4868 9.85876 22.4868 9.74997 22.4748C8.61518 22.3989 7.55512 21.882 6.79657 21.0346C6.42411 20.6227 6.13888 20.1397 5.95808 19.6146C5.77729 19.0895 5.70467 18.5333 5.74459 17.9794C5.75098 17.8907 5.7923 17.8083 5.85949 17.7501C5.92667 17.6918 6.01425 17.6627 6.10292 17.669C6.19158 17.6754 6.27407 17.7167 6.33228 17.7839C6.39048 17.8511 6.41962 17.9386 6.4133 18.0273C6.37997 18.4916 6.44107 18.9578 6.59289 19.3978C6.74471 19.8378 6.9841 20.2425 7.29663 20.5874C7.93915 21.3048 8.83694 21.7422 9.79788 21.8061C10.7581 21.8804 11.7093 21.5759 12.4478 20.9577C12.8063 20.661 13.101 20.2946 13.3141 19.8809C13.5271 19.4671 13.6541 19.0145 13.6875 18.5503C13.6939 18.4616 13.7352 18.3791 13.8024 18.3209C13.8696 18.2627 13.9571 18.2336 14.0458 18.2399C14.1344 18.2463 14.217 18.2876 14.2752 18.3548C14.3334 18.422 14.3625 18.5096 14.3562 18.5982C14.3167 19.1521 14.1655 19.6923 13.9116 20.1861C13.6577 20.68 13.3065 21.1173 12.879 21.4717C12.0933 22.1306 11.0997 22.4902 10.0743 22.4868Z" fill="#231F20"/>
</g>
<path d="M29.6325 17.6801C29.5322 18.4093 29.1463 19.0689 28.5597 19.5136C27.973 19.9584 27.2338 20.1519 26.5045 20.0516C25.7752 19.9513 25.1157 19.5653 24.6709 18.9787C24.2262 18.3921 24.0327 17.6528 24.133 16.9235L24.6111 13.4461C24.7114 12.7169 25.0974 12.0573 25.684 11.6126C26.2706 11.1678 27.0099 10.9744 27.7391 11.0747C28.4684 11.175 29.128 11.5609 29.5727 12.1475C30.0174 12.7341 30.2109 13.4734 30.1106 14.2027L29.6325 17.6801Z" fill="#EB008B"/>
<path d="M26.8854 20.338C26.7448 20.338 26.6044 20.3283 26.4652 20.3091C26.0702 20.2558 25.6897 20.1247 25.3457 19.9234C25.0016 19.7221 24.701 19.4546 24.461 19.1363C24.2193 18.8193 24.0429 18.4575 23.942 18.0719C23.8411 17.6862 23.8177 17.2844 23.8731 16.8896L24.3512 13.4122C24.461 12.6147 24.8829 11.8933 25.5243 11.4067C26.1657 10.9201 26.974 10.7081 27.7717 10.8172C28.1667 10.8705 28.5472 11.0016 28.8912 11.2029C29.2352 11.4042 29.5359 11.6717 29.7759 11.9899C30.0176 12.307 30.194 12.6687 30.2949 13.0544C30.3958 13.44 30.4192 13.8419 30.3638 14.2366L29.8857 17.714C29.8325 18.1092 29.7014 18.4899 29.5001 18.8341C29.2988 19.1783 29.0312 19.4791 28.7129 19.7192C28.188 20.1202 27.5459 20.3376 26.8854 20.338ZM27.3555 11.3082C26.7473 11.3087 26.1598 11.529 25.7013 11.9285C25.2427 12.328 24.944 12.8797 24.8602 13.4821L24.3821 16.9595C24.3362 17.2869 24.3555 17.6201 24.4391 17.94C24.5227 18.2598 24.6689 18.5599 24.8692 18.8229C25.0683 19.087 25.3178 19.309 25.6032 19.476C25.8886 19.643 26.2043 19.7518 26.532 19.7961C26.8595 19.8423 27.1929 19.8229 27.5128 19.7391C27.8327 19.6553 28.1327 19.5088 28.3955 19.308C28.6596 19.1091 28.8816 18.8596 29.0485 18.5741C29.2154 18.2887 29.3239 17.9729 29.3676 17.6451L29.8467 14.1678C29.9368 13.5066 29.761 12.8365 29.3578 12.3048C28.9546 11.773 28.3569 11.4228 27.6958 11.3312C27.5834 11.3159 27.47 11.3082 27.3565 11.3082H27.3555Z" fill="#EB008B"/>
<path d="M28.3584 17.7396C28.3179 17.9351 28.2394 18.1208 28.1272 18.2859C28.0151 18.4511 27.8715 18.5925 27.7046 18.7022C27.5378 18.8118 27.351 18.8875 27.1549 18.9249C26.9588 18.9624 26.7573 18.9609 26.5618 18.9204C26.3662 18.8801 26.1805 18.8016 26.0153 18.6895C25.8501 18.5774 25.7086 18.4338 25.599 18.2669C25.4893 18.1 25.4136 17.9132 25.3762 17.717C25.3388 17.5209 25.3405 17.3193 25.381 17.1238L25.8801 14.7064C25.9204 14.5109 25.9989 14.3252 26.111 14.16C26.2231 13.9948 26.3667 13.8533 26.5336 13.7436C26.7004 13.6339 26.8873 13.5583 27.0834 13.5209C27.2796 13.4835 27.4812 13.4851 27.6767 13.5257C27.8723 13.5659 28.0581 13.6442 28.2234 13.7563C28.3888 13.8684 28.5304 14.012 28.6401 14.1789C28.7499 14.3458 28.8257 14.5326 28.8631 14.7288C28.9006 14.925 28.899 15.1267 28.8584 15.3223L28.3584 17.7396Z" fill="#EE62A3"/>
<g opacity="0.1">
<path d="M6.40932 27.6279C4.0558 17.2676 8.02922 7.53313 15.2834 5.88527C15.6638 5.80271 16.0488 5.74239 16.4362 5.70462H16.3993C16.3993 5.70462 15.0798 5.64971 14.8093 5.67266C14.321 5.71125 13.8357 5.78294 13.3571 5.88725C6.1019 7.53511 2.12847 17.2656 4.48299 27.6299C6.71075 37.4342 13.8062 44.2802 20.7101 43.5895C14.452 42.9776 8.42647 36.5199 6.40932 27.6279Z" fill="#C0DF88"/>
</g>
<path d="M16.1129 35.2906C15.0942 35.3004 14.1035 34.9566 13.3098 34.3178C12.5161 33.6789 11.9685 32.7847 11.7602 31.7874C11.7469 31.7223 11.7467 31.6552 11.7597 31.59C11.7726 31.5249 11.7985 31.463 11.8357 31.408C11.8728 31.3529 11.9206 31.3059 11.9762 31.2695C12.0318 31.2332 12.0941 31.2084 12.1595 31.1964C12.2245 31.1831 12.2916 31.183 12.3568 31.196C12.4219 31.2089 12.4838 31.2347 12.5388 31.2719C12.5939 31.309 12.6409 31.3569 12.6772 31.4125C12.7136 31.4681 12.7384 31.5304 12.7504 31.5957C12.9422 32.4817 13.4777 33.2553 14.2392 33.7471C15.0007 34.2388 15.9262 34.4084 16.8126 34.2187C17.7045 34.0577 18.4963 33.5497 19.0143 32.806C19.5324 32.0624 19.7345 31.1437 19.5764 30.2513C19.5631 30.1862 19.5629 30.1191 19.5758 30.054C19.5888 29.9888 19.6146 29.9269 19.6518 29.8719C19.689 29.8168 19.7368 29.7698 19.7924 29.7335C19.848 29.6971 19.9103 29.6723 19.9756 29.6604C20.0406 29.6478 20.1075 29.6481 20.1724 29.6613C20.2372 29.6746 20.2989 29.7005 20.3538 29.7376C20.4086 29.7746 20.4557 29.8222 20.4922 29.8774C20.5286 29.9327 20.5539 29.9946 20.5665 30.0596C20.7759 31.214 20.519 32.4042 19.8522 33.3695C19.1854 34.3347 18.163 34.9962 17.0093 35.2088C16.7139 35.2653 16.4137 35.2926 16.1129 35.2906Z" fill="#231F20"/>
<path d="M10.259 21.8728C12.5125 21.8728 14.3392 20.046 14.3392 17.7925C14.3392 15.5391 12.5125 13.7123 10.259 13.7123C8.00555 13.7123 6.17877 15.5391 6.17877 17.7925C6.17877 20.046 8.00555 21.8728 10.259 21.8728Z" fill="white"/>
<path d="M10.0443 21.3559C11.8926 21.3559 13.3909 19.8575 13.3909 18.0093C13.3909 16.161 11.8926 14.6626 10.0443 14.6626C8.19603 14.6626 6.69769 16.161 6.69769 18.0093C6.69769 19.8575 8.19603 21.3559 10.0443 21.3559Z" fill="#F1F1F2"/>
<path d="M7.73849 13.6124C7.64321 13.6126 7.55078 13.5798 7.47696 13.5196C7.39199 13.4503 7.33799 13.3501 7.32676 13.241C7.31554 13.1319 7.348 13.0229 7.41708 12.9377C7.6935 12.5961 8.03495 12.3128 8.42163 12.1041C8.80832 11.8955 9.23257 11.7656 9.66981 11.722C10.448 11.6419 11.2296 11.8372 11.8786 12.2739C11.9696 12.3354 12.0325 12.4304 12.0535 12.5383C12.0745 12.6461 12.0518 12.7578 11.9904 12.8489C11.9289 12.9399 11.8339 13.0028 11.7261 13.0238C11.6183 13.0447 11.5065 13.0221 11.4155 12.9607C10.9272 12.6328 10.3397 12.4859 9.75464 12.5454C9.42532 12.5777 9.10571 12.6752 8.81441 12.8321C8.52311 12.9891 8.26593 13.2024 8.05785 13.4597C8.01921 13.5072 7.97053 13.5455 7.9153 13.5719C7.86008 13.5983 7.7997 13.6121 7.73849 13.6124Z" fill="#638C1C"/>
<path d="M20.3696 13.6332C20.3016 13.6334 20.2345 13.6167 20.1744 13.5846C20.1144 13.5526 20.0631 13.5062 20.0253 13.4496C19.6969 12.9611 19.2078 12.603 18.6429 12.4375C18.326 12.3436 17.9936 12.3135 17.6649 12.3492C17.3363 12.3848 17.018 12.4854 16.7286 12.6451C16.6322 12.6977 16.5189 12.7099 16.4135 12.6791C16.3082 12.6482 16.2194 12.5767 16.1667 12.4804C16.114 12.384 16.1018 12.2707 16.1327 12.1653C16.1636 12.06 16.235 11.9712 16.3313 11.9185C16.7163 11.7066 17.1395 11.5731 17.5763 11.5259C18.0132 11.4786 18.4551 11.5184 18.8765 11.643C19.627 11.8632 20.2767 12.3392 20.713 12.9884C20.7433 13.0336 20.7645 13.0843 20.7752 13.1376C20.786 13.1909 20.7862 13.2459 20.7757 13.2993C20.7652 13.3527 20.7443 13.4035 20.7142 13.4488C20.6841 13.4941 20.6454 13.533 20.6002 13.5634C20.5321 13.6092 20.4518 13.6335 20.3696 13.6332Z" fill="#638C1C"/>
<path d="M20.7272 7.42063C21.0093 6.60279 20.5409 5.69929 19.6808 5.4026C18.8208 5.10591 17.8949 5.52839 17.6127 6.34623C17.3306 7.16407 17.7991 8.06757 18.6591 8.36426C19.5192 8.66095 20.4451 8.23847 20.7272 7.42063Z" fill="#EC3A94"/>
<path d="M15.4398 2.28757L19.2446 6.66823L13.5485 7.77312L15.4398 2.28757Z" fill="#EC3A94"/>
<path d="M13.5475 8.17439C13.4907 8.17407 13.4346 8.16159 13.3829 8.13784C13.3313 8.11408 13.2853 8.0796 13.2481 8.03665C13.2017 7.98369 13.1702 7.91942 13.1567 7.85036C13.1432 7.7813 13.1482 7.70989 13.1712 7.64338L15.0626 2.15384C15.085 2.08752 15.1245 2.02826 15.1771 1.98202C15.2296 1.93577 15.2934 1.90414 15.3621 1.89033C15.4312 1.87672 15.5027 1.88165 15.5693 1.90462C15.6359 1.92758 15.6953 1.96777 15.7413 2.0211L19.5461 6.40176C19.5924 6.45472 19.6239 6.51896 19.6374 6.58802C19.6509 6.65708 19.6459 6.72849 19.6229 6.79499C19.6005 6.86131 19.5611 6.92057 19.5085 6.96682C19.4559 7.01306 19.3921 7.04469 19.3235 7.0585L13.6274 8.16339C13.6012 8.16973 13.5744 8.17343 13.5475 8.17439ZM15.5916 3.07509L14.1534 7.24714L18.4861 6.40673L15.5916 3.07509Z" fill="#EC3A94"/>
<path d="M23.0497 11.0476L19.2449 6.6669L24.9411 5.56201L23.0497 11.0476Z" fill="#EC3A94"/>
<path d="M23.0534 11.4478C22.9966 11.4475 22.9405 11.4351 22.8888 11.4113C22.8372 11.3876 22.7912 11.353 22.754 11.3101L18.9492 6.92943C18.9029 6.87647 18.8714 6.8122 18.8579 6.74314C18.8444 6.67408 18.8494 6.60267 18.8724 6.53617C18.895 6.47003 18.9345 6.41099 18.987 6.36492C19.0396 6.31886 19.1033 6.28739 19.1718 6.27367L24.868 5.16877C24.9371 5.15516 25.0086 5.1601 25.0752 5.18306C25.1418 5.20602 25.2012 5.24621 25.2473 5.29954C25.2938 5.3526 25.3254 5.41703 25.3389 5.48629C25.3524 5.55554 25.3473 5.62713 25.3241 5.69378L23.4327 11.1833C23.4101 11.2495 23.3706 11.3085 23.3181 11.3546C23.2655 11.4006 23.2018 11.4321 23.1333 11.4458C23.1068 11.4492 23.08 11.4498 23.0534 11.4478ZM20.0062 6.92745L22.9007 10.2591L24.339 6.08704L20.0062 6.92745Z" fill="#EC3A94"/>
<g opacity="0.5">
<path d="M7.51345 25.6118C8.24659 25.6118 8.84092 25.0175 8.84092 24.2844C8.84092 23.5512 8.24659 22.9569 7.51345 22.9569C6.7803 22.9569 6.18597 23.5512 6.18597 24.2844C6.18597 25.0175 6.7803 25.6118 7.51345 25.6118Z" fill="#EE60A2"/>
</g>
<g opacity="0.5">
<path d="M21.7939 25.6118C22.5271 25.6118 23.1214 25.0175 23.1214 24.2844C23.1214 23.5512 22.5271 22.9569 21.7939 22.9569C21.0608 22.9569 20.4665 23.5512 20.4665 24.2844C20.4665 25.0175 21.0608 25.6118 21.7939 25.6118Z" fill="#EE60A2"/>
</g>
<path d="M11.0438 17.686C11.552 17.686 11.964 17.274 11.964 16.7657C11.964 16.2575 11.552 15.8455 11.0438 15.8455C10.5355 15.8455 10.1235 16.2575 10.1235 16.7657C10.1235 17.274 10.5355 17.686 11.0438 17.686Z" fill="#231F20"/>
<g opacity="0.1">
<path d="M17.7618 22.4869C17.654 22.4869 17.5462 22.4869 17.4374 22.4749C16.301 22.3987 15.2396 21.8803 14.481 21.0307C14.1085 20.6188 13.8232 20.1358 13.6424 19.6107C13.4616 19.0856 13.389 18.5293 13.429 17.9754C13.4354 17.8868 13.4768 17.8043 13.544 17.7461C13.6111 17.6879 13.6987 17.6587 13.7874 17.6651C13.876 17.6715 13.9585 17.7128 14.0167 17.78C14.0749 17.8471 14.1041 17.9347 14.0978 18.0234C14.0644 18.4877 14.1255 18.9538 14.2773 19.3938C14.4292 19.8338 14.6686 20.2386 14.9811 20.5835C15.6235 21.3011 16.5213 21.7385 17.4823 21.8021C18.4425 21.8763 19.3937 21.5718 20.1323 20.9538C20.4907 20.657 20.7853 20.2906 20.9984 19.8769C21.2114 19.4631 21.3385 19.0106 21.3719 18.5464C21.375 18.5024 21.3866 18.4595 21.4063 18.4201C21.426 18.3807 21.4533 18.3456 21.4866 18.3167C21.5199 18.2879 21.5585 18.2659 21.6003 18.252C21.6422 18.2382 21.6863 18.2327 21.7302 18.2359C21.8189 18.2423 21.9014 18.2837 21.9596 18.3509C22.0178 18.4181 22.047 18.5056 22.0407 18.5943C22.0013 19.1482 21.85 19.6884 21.5962 20.1822C21.3423 20.6761 20.991 21.1134 20.5635 21.4678C19.7791 22.1275 18.7867 22.4885 17.7618 22.4869Z" fill="#231F20"/>
</g>
<path d="M17.9942 13.7123C17.1493 13.7128 16.3253 13.9756 15.6362 14.4647C14.9471 14.9537 14.4269 15.6447 14.1476 16.4421C13.8682 15.6447 13.348 14.9537 12.6589 14.4647C11.9698 13.9756 11.1459 13.7128 10.3009 13.7123C9.21874 13.7123 8.18092 14.1422 7.41572 14.9074C6.65053 15.6726 6.22067 16.7103 6.22067 17.7925C6.22067 18.8746 6.65053 19.9125 7.41572 20.6777C8.18092 21.4429 9.21874 21.8727 10.3009 21.8727C11.1459 21.8723 11.9698 21.6094 12.6589 21.1204C13.348 20.6314 13.8682 19.9404 14.1476 19.1429C14.4269 19.9404 14.9471 20.6314 15.6362 21.1204C16.3253 21.6094 17.1493 21.8723 17.9942 21.8727C19.0764 21.8727 20.1142 21.4429 20.8794 20.6777C21.6446 19.9125 22.0745 18.8746 22.0745 17.7925C22.0745 16.7103 21.6446 15.6726 20.8794 14.9074C20.1142 14.1422 19.0764 13.7123 17.9942 13.7123Z" fill="white"/>
<path d="M18.1171 19.0891C19.3948 19.0891 20.4307 18.0532 20.4307 16.7755C20.4307 15.4977 19.3948 14.4619 18.1171 14.4619C16.8393 14.4619 15.8035 15.4977 15.8035 16.7755C15.8035 18.0532 16.8393 19.0891 18.1171 19.0891Z" fill="#9967AA"/>
<path d="M18.7366 17.686C19.2449 17.686 19.6569 17.274 19.6569 16.7657C19.6569 16.2575 19.2449 15.8455 18.7366 15.8455C18.2284 15.8455 17.8164 16.2575 17.8164 16.7657C17.8164 17.274 18.2284 17.686 18.7366 17.686Z" fill="#231F20"/>
<path d="M8.2309 18.6709C8.53242 18.6709 8.77686 18.4265 8.77686 18.1249C8.77686 17.8234 8.53242 17.579 8.2309 17.579C7.92937 17.579 7.68494 17.8234 7.68494 18.1249C7.68494 18.4265 7.92937 18.6709 8.2309 18.6709Z" fill="#FFFCE6"/>
<path d="M8.77792 17.1958C9.31592 17.1958 9.75206 16.7596 9.75206 16.2216C9.75206 15.6836 9.31592 15.2475 8.77792 15.2475C8.23991 15.2475 7.80377 15.6836 7.80377 16.2216C7.80377 16.7596 8.23991 17.1958 8.77792 17.1958Z" fill="#FFFCE6"/>
<path d="M20.4665 20.3309C21.0045 20.3309 21.4407 19.8948 21.4407 19.3568C21.4407 18.8188 21.0045 18.3827 20.4665 18.3827C19.9285 18.3827 19.4924 18.8188 19.4924 19.3568C19.4924 19.8948 19.9285 20.3309 20.4665 20.3309Z" fill="#FFFCE6"/>
<path d="M10.4236 19.0891C11.7014 19.0891 12.7372 18.0532 12.7372 16.7755C12.7372 15.4977 11.7014 14.4619 10.4236 14.4619C9.14585 14.4619 8.11002 15.4977 8.11002 16.7755C8.11002 18.0532 9.14585 19.0891 10.4236 19.0891Z" fill="#9967AA"/>
<path d="M11.0006 17.5792C11.5089 17.5792 11.9209 17.1672 11.9209 16.659C11.9209 16.1507 11.5089 15.7387 11.0006 15.7387C10.4924 15.7387 10.0804 16.1507 10.0804 16.659C10.0804 17.1672 10.4924 17.5792 11.0006 17.5792Z" fill="#231F20"/>
</svg>
