<svg width="6" height="19" viewBox="0 0 6 19" fill="none" xmlns="http://www.w3.org/2000/svg">
<path d="M3.02465 17.2747C2.82026 17.2747 2.61788 17.2345 2.42905 17.1562C2.24022 17.078 2.06864 16.9634 1.92412 16.8189C1.77959 16.6743 1.66495 16.5028 1.58673 16.3139C1.50852 16.1251 1.46826 15.9227 1.46826 15.7183V8.53991C1.46826 8.12713 1.63224 7.73126 1.92412 7.43938C2.216 7.1475 2.61187 6.98352 3.02465 6.98352C3.43743 6.98352 3.83331 7.1475 4.12519 7.43938C4.41707 7.73126 4.58104 8.12713 4.58104 8.53991V15.7183C4.58104 15.9227 4.54079 16.1251 4.46257 16.3139C4.38435 16.5028 4.26971 16.6743 4.12519 16.8189C3.98066 16.9634 3.80909 17.078 3.62026 17.1562C3.43143 17.2345 3.22904 17.2747 3.02465 17.2747Z" stroke="#5FACF4" stroke-width="1.60232" stroke-linecap="round" stroke-linejoin="round"/>
<path d="M3.02465 1.02173C2.71683 1.02173 2.41592 1.11301 2.15997 1.28403C1.90402 1.45505 1.70454 1.69812 1.58674 1.98251C1.46894 2.26691 1.43811 2.57985 1.49817 2.88176C1.55822 3.18367 1.70645 3.46099 1.92412 3.67865C2.14178 3.89632 2.41911 4.04455 2.72102 4.1046C3.02293 4.16466 3.33587 4.13384 3.62026 4.01604C3.90465 3.89824 4.14773 3.69875 4.31875 3.4428C4.48976 3.18686 4.58104 2.88594 4.58104 2.57812C4.58104 2.37373 4.54079 2.17134 4.46257 1.98251C4.38436 1.79368 4.26971 1.62211 4.12519 1.47758C3.98066 1.33306 3.80909 1.21842 3.62026 1.1402C3.43143 1.06199 3.22904 1.02173 3.02465 1.02173V1.02173Z" stroke="#5FACF4" stroke-width="1.60232" stroke-linecap="round" stroke-linejoin="round"/>
</svg>
