<svg width="18" height="16" viewBox="0 0 18 16" fill="none" xmlns="http://www.w3.org/2000/svg">
<path d="M15.3591 2.17262C14.9767 1.75594 14.5112 1.42403 13.9926 1.19828C13.474 0.972522 12.9139 0.857941 12.3483 0.86192C11.4904 0.858112 10.6567 1.14588 9.98383 1.67804C9.61871 1.96376 9.29655 2.30049 9.02725 2.67789C8.75799 2.30108 8.43602 1.9649 8.07119 1.67964C7.39833 1.14686 6.56441 0.858531 5.70616 0.86192C5.14059 0.857875 4.58045 0.972425 4.06187 1.19818C3.54329 1.42394 3.07779 1.75589 2.69539 2.17262C1.90768 3.05531 1.48146 4.20239 1.50166 5.38528C1.53632 6.74863 2.06711 8.05252 2.9945 9.05247C4.1444 10.3203 5.39471 11.4932 6.73325 12.56V12.56C7.25027 13.0011 7.83672 13.5005 8.4424 14.032C8.60343 14.1728 8.8101 14.2505 9.02404 14.2505C9.23798 14.2505 9.44466 14.1728 9.60569 14.032C10.2151 13.4979 10.8021 12.9985 11.3202 12.5573C12.6587 11.4905 13.909 10.3176 15.0589 9.0498C15.9864 8.04991 16.5172 6.74598 16.5518 5.38261C16.5716 4.20078 16.1458 3.05479 15.3591 2.17262V2.17262Z" stroke="#FD3C38" stroke-width="1.60232" stroke-miterlimit="10" stroke-linecap="round" stroke-linejoin="round"/>
</svg>
