<svg width="19" height="19" viewBox="0 0 19 19" fill="none" xmlns="http://www.w3.org/2000/svg">
<path d="M17.9913 6.79835C17.9751 6.7653 17.9506 6.73701 17.9202 6.71621C17.8898 6.69542 17.8546 6.68283 17.8179 6.67966L4.09346 5.87991L9.6136 10.6531L9.95243 17.2625C9.99701 17.3156 10.0529 17.3579 10.1161 17.3863C10.1793 17.4147 10.2482 17.4286 10.3174 17.4267C10.3867 17.4245 10.4546 17.4066 10.516 17.3744C10.5774 17.3422 10.6307 17.2965 10.672 17.2408L17.964 7.05475C17.9939 7.01976 18.0125 6.97654 18.0173 6.93078C18.0222 6.88503 18.0131 6.83885 17.9913 6.79835V6.79835Z" stroke="#62C058" stroke-width="1.60204" stroke-linecap="round" stroke-linejoin="round"/>
<path d="M9.61592 10.6544L17.8179 6.67969" stroke="#62C058" stroke-width="1.60204" stroke-linecap="round" stroke-linejoin="round"/>
</svg>
