<svg width="16" height="14" viewBox="0 0 16 14" fill="none" xmlns="http://www.w3.org/2000/svg">
<path fill-rule="evenodd" clip-rule="evenodd" d="M7.01302 2.96409C7.04963 2.61039 7.08776 2.24341 7.18156 1.87721C7.43703 1.00116 8.14474 0.454597 8.90355 0.454597C9.3268 0.453035 9.86215 0.713822 10.1657 0.977733L12.6815 3.08511H13.9986C14.9679 3.08511 15.7473 3.83234 15.8944 4.91062C16.0195 5.94596 16.05 7.90031 15.8944 9.03949C15.7595 10.1787 15.0152 10.915 13.9986 10.915H12.6815L10.1169 13.0536C9.85377 13.2824 9.38933 13.5447 8.96227 13.5447C8.93481 13.5455 8.91041 13.5455 8.88601 13.5455C8.11271 13.5455 7.4317 12.9786 7.17622 12.1049C7.07997 11.7356 7.04623 11.3893 7.01363 11.0547L7.01302 11.0485L6.9787 10.7151C6.84753 9.63368 6.84753 4.35938 6.9787 3.28578L7.01302 2.96409ZM4.06792 2.99608C4.27764 2.68689 4.69327 2.60959 4.99755 2.82431C5.29879 3.04059 5.37352 3.46691 5.1638 3.77532C4.5804 4.63498 4.25934 5.77964 4.25934 7.00003C4.25934 8.21964 4.5804 9.36507 5.1638 10.2247C5.37352 10.5331 5.29879 10.9595 4.99679 11.1757C4.88392 11.2554 4.75199 11.2976 4.61625 11.2976C4.39737 11.2976 4.19299 11.1875 4.06792 11.004C3.33124 9.91866 2.92476 8.49682 2.92476 7.00003C2.92476 5.50323 3.33124 4.0814 4.06792 2.99608ZM2.69819 0.615342C2.39467 0.399841 1.97752 0.478702 1.76932 0.787118C0.628449 2.46662 5.43594e-05 4.67394 5.43594e-05 6.99994C5.43594e-05 9.32751 0.628449 11.5341 1.76932 13.2136C1.89363 13.397 2.09877 13.5071 2.31765 13.5071C2.45339 13.5071 2.58456 13.465 2.69743 13.3853C2.99942 13.169 3.07416 12.7435 2.8652 12.4343C1.87838 10.9805 1.33463 9.05033 1.33463 6.99994C1.33463 4.95034 1.87838 3.02021 2.8652 1.56636C3.07416 1.25794 2.99942 0.831624 2.69819 0.615342Z" fill="#312858"/>
</svg>
