<svg width="22" height="16" viewBox="0 0 22 16" fill="none" xmlns="http://www.w3.org/2000/svg">
<path d="M20.6894 11.9432C20.6894 12.727 20.3781 13.4786 19.824 14.0329C19.2698 14.5871 18.5182 14.8985 17.7344 14.8986H3.95546C3.17163 14.8986 2.41989 14.5873 1.86564 14.033C1.31139 13.4788 1 12.727 1 11.9432C1 11.5551 1.07645 11.1708 1.22498 10.8123C1.37351 10.4537 1.59125 10.128 1.8657 9.85355C2.14014 9.57915 2.46592 9.3615 2.82448 9.21303C3.18305 9.06455 3.56737 8.98816 3.95546 8.98822H17.7344C18.5181 8.98822 19.2697 9.29955 19.8239 9.85371C20.3781 10.4079 20.6894 11.1595 20.6894 11.9432V11.9432Z" stroke="#312858" stroke-width="1.5" stroke-miterlimit="10" stroke-linecap="round" stroke-linejoin="round"/>
<path d="M15.4754 5.52862C15.4258 5.42909 15.3493 5.34543 15.2547 5.28708C15.16 5.22873 15.0509 5.19804 14.9397 5.19846H13.6647V1.60964C13.6647 1.54618 13.6395 1.48532 13.5946 1.44045C13.5498 1.39557 13.4889 1.37036 13.4255 1.37036H8.26254C8.2311 1.3703 8.19996 1.37645 8.1709 1.38845C8.14184 1.40045 8.11543 1.41807 8.0932 1.44031C8.07096 1.46254 8.05336 1.48894 8.04135 1.518C8.02935 1.54706 8.02318 1.5782 8.02324 1.60964V5.19846H6.74877C6.63751 5.19801 6.52834 5.22869 6.4336 5.28703C6.33886 5.34538 6.2623 5.42905 6.21263 5.52862C6.16321 5.6286 6.14244 5.74031 6.1526 5.85137C6.16275 5.96244 6.20342 6.06853 6.27016 6.15788L10.3677 11.5596C10.4235 11.6331 10.4955 11.6927 10.5781 11.7338C10.6607 11.7749 10.7517 11.7964 10.844 11.7966C10.9362 11.7963 11.0271 11.7748 11.1096 11.7337C11.1921 11.6926 11.2641 11.633 11.3199 11.5596L15.415 6.15788C15.4828 6.06904 15.5243 5.96304 15.535 5.85185C15.5456 5.74065 15.525 5.6287 15.4754 5.52862Z" fill="white" stroke="#312858" stroke-width="1.5" stroke-miterlimit="10" stroke-linecap="round" stroke-linejoin="round"/>
</svg>
