<svg width="13" height="14" viewBox="0 0 13 14" fill="none" xmlns="http://www.w3.org/2000/svg">
<path d="M0.729246 8.32116C0.523949 8.20508 0.353153 8.03658 0.234315 7.83288C0.115476 7.62917 0.0528564 7.39756 0.0528564 7.16172C0.0528564 6.92589 0.115476 6.69428 0.234315 6.49057C0.353153 6.28686 0.523949 6.11836 0.729246 6.00229L10.399 0.5381C10.6016 0.423588 10.8307 0.364172 11.0634 0.365775C11.2962 0.367377 11.5244 0.429943 11.7255 0.547235C11.9265 0.664528 12.0933 0.832453 12.2092 1.03428C12.3251 1.2361 12.3862 1.46479 12.3862 1.69753V12.6259C12.3862 12.8587 12.3251 13.0873 12.2092 13.2892C12.0933 13.491 11.9265 13.6589 11.7255 13.7762C11.5244 13.8935 11.2962 13.9561 11.0634 13.9577C10.8307 13.9593 10.6016 13.8999 10.399 13.7853L0.729246 8.32116Z" fill="#312858"/>
<path d="M1.99788 0H0.665958C0.29816 0 0 0.29816 0 0.665958V13.3192C0 13.687 0.29816 13.9851 0.665958 13.9851H1.99788C2.36567 13.9851 2.66383 13.687 2.66383 13.3192V0.665958C2.66383 0.29816 2.36567 0 1.99788 0Z" fill="#312858"/>
</svg>
