<svg width="19" height="19" viewBox="0 0 19 19" fill="none" xmlns="http://www.w3.org/2000/svg">
<path d="M17.8537 9.42786C17.8517 10.7681 17.3184 12.0529 16.3706 13.0006C15.4228 13.9482 14.1379 14.4813 12.7976 14.483H4.85918L6.52368 16.9795C6.56472 17.0409 6.59323 17.1097 6.60763 17.1821C6.62204 17.2545 6.62205 17.329 6.60763 17.4014C6.59321 17.4738 6.56467 17.5427 6.52363 17.604C6.48258 17.6654 6.42985 17.718 6.36844 17.759C6.30704 17.8 6.23813 17.8286 6.1657 17.843C6.09326 17.8574 6.01873 17.8574 5.94629 17.843C5.87386 17.8286 5.80495 17.8 5.74355 17.759C5.68216 17.7179 5.62948 17.6652 5.58847 17.6037L3.34173 14.2327C3.33075 14.213 3.32115 14.1926 3.31297 14.1715C3.30318 14.1535 3.29449 14.1349 3.28694 14.1158C3.26219 14.0537 3.24871 13.9877 3.24719 13.9208C3.24881 13.855 3.26184 13.79 3.2856 13.7286C3.29382 13.7094 3.30248 13.6907 3.31252 13.6729C3.32076 13.6519 3.33036 13.6314 3.34129 13.6117L5.58847 10.2412C5.6294 10.1797 5.68205 10.1269 5.74339 10.0858C5.80472 10.0448 5.87356 10.0162 5.94596 10.0017C6.01836 9.98723 6.09289 9.98719 6.16531 10.0016C6.23773 10.0159 6.3066 10.0444 6.36799 10.0854C6.49183 10.1683 6.57769 10.2969 6.6068 10.4431C6.6359 10.5892 6.60586 10.7409 6.52324 10.8649L4.85918 13.3592H12.7981C13.8407 13.3581 14.8404 12.9434 15.5777 12.2061C16.315 11.4688 16.7297 10.4692 16.7308 9.42649C16.7308 9.27753 16.7899 9.13466 16.8953 9.02933C17.0006 8.92399 17.1435 8.86481 17.2924 8.86481C17.4414 8.86481 17.5843 8.92399 17.6896 9.02933C17.7949 9.13466 17.8541 9.27753 17.8541 9.42649L17.8537 9.42786Z" fill="#312858" stroke="#312858" stroke-width="0.5"/>
<path d="M2.1229 9.42741C2.12296 9.50115 2.10849 9.57418 2.08031 9.64233C2.05213 9.71047 2.0108 9.77239 1.95868 9.82455C1.90656 9.87671 1.84468 9.9181 1.77656 9.94633C1.70844 9.97456 1.63541 9.98909 1.56167 9.98909C1.4127 9.98909 1.26983 9.92992 1.1645 9.82458C1.05916 9.71924 1 9.57638 1 9.42741C1.00145 8.08684 1.53469 6.80158 2.48267 5.85369C3.43064 4.9058 4.71591 4.37271 6.05649 4.37138H13.9949L12.3309 1.87396C12.2898 1.81259 12.2613 1.74374 12.2469 1.67134C12.2325 1.59894 12.2325 1.52442 12.2469 1.45202C12.2613 1.37962 12.2899 1.31079 12.3309 1.24943C12.372 1.18808 12.4248 1.13541 12.4862 1.09445C12.6102 1.01175 12.762 0.981692 12.9081 1.01089C13.0543 1.0401 13.1829 1.12617 13.2656 1.25017L15.5128 4.62116C15.5234 4.64085 15.5329 4.66113 15.5411 4.68189C15.5514 4.69976 15.5602 4.71839 15.5676 4.73761C15.5924 4.79985 15.6058 4.86607 15.6069 4.93306C15.6057 4.99862 15.5927 5.06343 15.5686 5.1244C15.561 5.1437 15.5521 5.16245 15.542 5.18056C15.5336 5.20134 15.524 5.22162 15.5133 5.24129L13.2656 8.61229C13.2247 8.67368 13.1721 8.7264 13.1108 8.76745C13.0495 8.8085 12.9807 8.83707 12.9084 8.85153C12.836 8.86599 12.7616 8.86606 12.6892 8.85173C12.6168 8.8374 12.548 8.80895 12.4866 8.76801C12.3628 8.68512 12.2769 8.55654 12.2477 8.41043C12.2185 8.26432 12.2484 8.1126 12.3309 7.98851L13.9949 5.49429H6.05649C5.01377 5.49549 4.01408 5.91018 3.27668 6.64741C2.53927 7.38464 2.12435 8.38423 2.1229 9.42695V9.42741Z" fill="#312858" stroke="#312858" stroke-width="0.5"/>
</svg>
