<svg width="13" height="14" viewBox="0 0 13 14" fill="none" xmlns="http://www.w3.org/2000/svg">
<path d="M11.882 6.0023C12.0873 6.11837 12.2581 6.28687 12.377 6.49058C12.4958 6.69429 12.5584 6.9259 12.5584 7.16173C12.5584 7.39757 12.4958 7.62918 12.377 7.83289C12.2581 8.03659 12.0873 8.20509 11.882 8.32117L2.21297 13.7854C2.01034 13.8999 1.78124 13.9593 1.5485 13.9577C1.31575 13.9561 1.08749 13.8935 0.886457 13.7762C0.685423 13.6589 0.518634 13.491 0.40271 13.2892C0.286785 13.0874 0.225773 12.8587 0.225751 12.6259V1.69754C0.225773 1.46479 0.286785 1.23611 0.40271 1.03429C0.518634 0.832462 0.685423 0.664537 0.886457 0.547244C1.08749 0.429952 1.31575 0.367387 1.5485 0.365785C1.78124 0.364182 2.01034 0.423597 2.21297 0.53811L11.882 6.0023Z" fill="#312858"/>
<path d="M11.9461 0H10.6141C10.2463 0 9.94818 0.29816 9.94818 0.665958V13.3192C9.94818 13.687 10.2463 13.9851 10.6141 13.9851H11.9461C12.3139 13.9851 12.612 13.687 12.612 13.3192V0.665958C12.612 0.29816 12.3139 0 11.9461 0Z" fill="#312858"/>
</svg>
