<svg width="14" height="18" viewBox="0 0 14 18" fill="none" xmlns="http://www.w3.org/2000/svg">
<path d="M10.9294 8.48555C10.9569 9.57219 10.5521 10.6253 9.80373 11.4137C9.05538 12.2021 8.02466 12.6612 6.93806 12.6903V12.6903C5.85139 12.6614 4.82069 12.2023 4.0723 11.4139C3.32391 10.6255 2.91903 9.57224 2.9467 8.48555V4.98304C2.91903 3.89635 3.32391 2.8431 4.0723 2.0547C4.82069 1.26629 5.85139 0.80721 6.93806 0.77829C8.02466 0.807389 9.05538 1.26654 9.80373 2.05491C10.5521 2.84327 10.9569 3.8964 10.9294 4.98304V8.48555Z" stroke="white" stroke-width="1.36363"/>
<path d="M12.8691 9.66846C12.7412 11.1334 12.0652 12.4963 10.9761 13.4844C9.88699 14.4725 8.4652 15.0133 6.99473 14.9985C5.51321 15.0503 4.06985 14.5221 2.97109 13.527C1.87232 12.5318 1.20446 11.1479 1.10974 9.66846" stroke="white" stroke-width="1.36363" stroke-linecap="round"/>
<path d="M4.81476 17.2952H9.13815" stroke="white" stroke-width="1.36363" stroke-linecap="round"/>
<path d="M6.97601 17.2953V15.1339" stroke="white" stroke-width="1.36363" stroke-linecap="round"/>
</svg>
