<svg width="18" height="19" viewBox="0 0 18 19" fill="none" xmlns="http://www.w3.org/2000/svg">
<path d="M17.9377 8.57544H16.7861V16.1773C16.7859 16.7851 16.5416 17.3679 16.1068 17.7977C15.672 18.2274 15.0823 18.4689 14.4674 18.4691H13.0124C12.7399 18.4683 12.4789 18.3609 12.2862 18.1705C12.0935 17.9801 11.985 17.7221 11.9841 17.4528V12.7016C11.9836 12.4228 11.8713 12.1556 11.6719 11.9584C11.4724 11.7613 11.202 11.6502 10.9199 11.6497H7.01777C6.73569 11.6502 6.46532 11.7613 6.26586 11.9584C6.06639 12.1556 5.95405 12.4228 5.95351 12.7016V17.4528C5.95398 17.5864 5.92776 17.7188 5.87625 17.8423C5.82474 17.9658 5.74897 18.078 5.65339 18.1725C5.55782 18.2669 5.44429 18.3417 5.31933 18.3927C5.19436 18.4436 5.06043 18.4695 4.92526 18.4691H3.47032C2.85541 18.4689 2.26574 18.2274 1.83093 17.7977C1.39612 17.3679 1.15176 16.7851 1.15163 16.1773V8.57544H0C0.00265301 8.4497 0.0335295 8.32611 0.0904357 8.21362C0.147342 8.10113 0.228862 8.00253 0.329045 7.92499L8.19507 0.714329C8.34401 0.59847 8.5274 0.53422 8.71691 0.531465C8.90643 0.528711 9.09158 0.587651 9.2439 0.699132L17.5881 7.91482C17.6941 7.99066 17.7809 8.0898 17.8416 8.20444C17.9022 8.31907 17.9352 8.44609 17.9377 8.57544Z" fill="#FFCF01"/>
<path d="M17.9377 8.57488C17.9351 8.44554 17.9022 8.31907 17.8416 8.20444C17.7809 8.0898 17.6941 7.99066 17.5881 7.91482L9.2439 0.698574C9.09158 0.587093 8.90643 0.528711 8.71691 0.531465C8.5274 0.53422 8.34401 0.59847 8.19507 0.714329L0.329045 7.92499C0.228875 8.00243 0.147345 8.1004 0.0904357 8.21281C0.0335269 8.32522 0.00265666 8.44872 0 8.57438L17.9377 8.57488Z" fill="#FFCF01"/>
</svg>
