<svg width="19" height="24" viewBox="0 0 19 24" fill="none" xmlns="http://www.w3.org/2000/svg">
<path fill-rule="evenodd" clip-rule="evenodd" d="M7.61602 19.9818C7.61602 20.636 7.42201 21.2756 7.05852 21.8196C6.69503 22.3636 6.17839 22.7876 5.57393 23.038C4.96947 23.2883 4.30434 23.3538 3.66265 23.2262C3.02096 23.0986 2.43153 22.7835 1.9689 22.3209C1.50626 21.8582 1.19121 21.2688 1.06357 20.6271C0.935925 19.9854 1.00143 19.3203 1.25181 18.7158C1.50218 18.1114 1.92618 17.5947 2.47018 17.2312C3.01418 16.8678 3.65376 16.6737 4.30802 16.6737C5.18536 16.6737 6.02675 17.0223 6.64713 17.6426C7.2675 18.263 7.61602 19.1044 7.61602 19.9818Z" fill="white" stroke="white" stroke-width="0.228928" stroke-miterlimit="10"/>
<path fill-rule="evenodd" clip-rule="evenodd" d="M6.61646 20.2496C6.61646 20.3822 6.66915 20.5094 6.76291 20.6031C6.85667 20.6969 6.98384 20.7496 7.11645 20.7496C7.24905 20.7496 7.37622 20.6969 7.46998 20.6031C7.56375 20.5094 7.61643 20.3822 7.61643 20.2496V7.90122C7.61643 7.76861 7.56375 7.64144 7.46998 7.54768C7.37622 7.45391 7.24905 7.40125 7.11645 7.40125C6.98384 7.40125 6.85667 7.45391 6.76291 7.54768C6.66915 7.64144 6.61646 7.76861 6.61646 7.90122V20.2496Z" fill="white" stroke="white" stroke-width="0.228928" stroke-miterlimit="10"/>
<path fill-rule="evenodd" clip-rule="evenodd" d="M18.3275 15.2851C18.3274 15.9393 18.1333 16.5788 17.7698 17.1228C17.4063 17.6667 16.8896 18.0906 16.2851 18.3409C15.6806 18.5912 15.0155 18.6567 14.3739 18.529C13.7322 18.4013 13.1428 18.0862 12.6802 17.6236C12.2176 17.1609 11.9026 16.5715 11.775 15.9298C11.6474 15.2881 11.713 14.623 11.9633 14.0186C12.2137 13.4141 12.6377 12.8975 13.1817 12.5341C13.7257 12.1706 14.3653 11.9766 15.0195 11.9766C15.454 11.9765 15.8842 12.0621 16.2856 12.2283C16.687 12.3946 17.0517 12.6383 17.3589 12.9455C17.6661 13.2528 17.9098 13.6175 18.076 14.0189C18.2422 14.4203 18.3276 14.8506 18.3275 15.2851Z" fill="white" stroke="white" stroke-width="0.228928" stroke-miterlimit="10"/>
<path fill-rule="evenodd" clip-rule="evenodd" d="M17.3262 15.5524C17.3262 15.685 17.3789 15.8122 17.4727 15.9059C17.5664 15.9997 17.6936 16.0524 17.8262 16.0524C17.9588 16.0524 18.086 15.9997 18.1798 15.9059C18.2735 15.8122 18.3262 15.685 18.3262 15.5524V3.20308C18.3262 3.07048 18.2735 2.94331 18.1798 2.84954C18.086 2.75578 17.9588 2.70309 17.8262 2.70309C17.6936 2.70309 17.5664 2.75578 17.4727 2.84954C17.3789 2.94331 17.3262 3.07048 17.3262 3.20308V15.5524Z" fill="white" stroke="white" stroke-width="0.228928" stroke-miterlimit="10"/>
<path d="M7.55603 6.44382V9.15937L17.3835 4.88482V2.18989L7.55603 6.44382ZM7.08583 10.3493C7.02408 10.3494 6.96292 10.3373 6.90584 10.3137C6.84877 10.2901 6.7969 10.2556 6.75319 10.2119C6.70949 10.1683 6.67479 10.1165 6.65111 10.0595C6.62742 10.0025 6.6152 9.94133 6.61514 9.87958V6.13615C6.61522 6.04458 6.64199 5.95502 6.69216 5.87842C6.74233 5.80182 6.81374 5.74151 6.89764 5.70485L17.666 1.0393C17.7375 1.00805 17.8157 0.995113 17.8935 1.00165C17.9713 1.00819 18.0463 1.034 18.1116 1.07676C18.1769 1.11951 18.2306 1.17786 18.2677 1.24654C18.3049 1.31522 18.3243 1.39205 18.3244 1.47013V5.19113C18.3243 5.28253 18.2977 5.37195 18.2477 5.44845C18.1977 5.52496 18.1265 5.58526 18.0428 5.62198L7.27675 10.31C7.21717 10.3362 7.15277 10.3498 7.08766 10.3498L7.08583 10.3493Z" fill="white" stroke="white" stroke-width="0.228928" stroke-miterlimit="10"/>
</svg>
